<?xml version="1.0" encoding="UTF-8"?>
<svg version="1.1" xmlns="http://www.w3.org/2000/svg" width="50" height="57">
<path d="M0 0 C16.5 0 33 0 50 0 C50 18.81 50 37.62 50 57 C33.5 57 17 57 0 57 C0 38.19 0 19.38 0 0 Z " fill="#FBFAFA" transform="translate(0,0)"/>
<path d="M0 0 C0 2.64 0 5.28 0 8 C5.28 8 10.56 8 16 8 C12.3168712 11.6831288 8.80918624 14.94333362 3.87109375 16.80078125 C1.22655847 17.95037351 -0.17642032 18.732494 -2 21 C-3.01052048 26.36602584 -3.10241408 31.55285109 -3 37 C-3.66 37 -4.32 37 -5 37 C-4.34 37.99 -3.68 38.98 -3 40 C-2.92094936 42.33199388 -2.91201231 44.66832622 -3 47 C-8.76646559 44.19399665 -14.91921281 41.06017611 -19 36 C-19.87405148 33.24545723 -20.11947168 30.77026179 -20.09765625 27.890625 C-20.09443359 27.13652344 -20.09121094 26.38242187 -20.08789062 25.60546875 C-20.07951172 24.82816406 -20.07113281 24.05085938 -20.0625 23.25 C-20.05798828 22.45722656 -20.05347656 21.66445313 -20.04882812 20.84765625 C-20.03708565 18.89840492 -20.01915146 16.94919262 -20 15 C-19.34 15 -18.68 15 -18 15 C-18.33 14.01 -18.66 13.02 -19 12 C-16.72958215 10.37441681 -14.45868411 8.74951198 -12.1875 7.125 C-11.54490234 6.66480469 -10.90230469 6.20460938 -10.24023438 5.73046875 C-9.30727539 5.06337891 -9.30727539 5.06337891 -8.35546875 4.3828125 C-7.78465576 3.97434082 -7.21384277 3.56586914 -6.62573242 3.14501953 C-2.16034115 0 -2.16034115 0 0 0 Z " fill="#EDDFDF" transform="translate(27,4)"/>
<path d="M0 0 C0 2.64 0 5.28 0 8 C5.28 8 10.56 8 16 8 C12.299992 11.700008 8.7951428 14.90245769 3.87109375 16.8359375 C1.28774765 17.99128012 -0.17696675 18.807139 -2 21 C-3.00600488 26.03540411 -3.10306388 30.87901325 -3 36 C-3.99 36 -4.98 36 -6 36 C-6 35.34 -6 34.68 -6 34 C-6.66 34 -7.32 34 -8 34 C-8.16236745 31.41414795 -8.28095486 28.83848046 -8.375 26.25 C-8.42527344 25.52039063 -8.47554687 24.79078125 -8.52734375 24.0390625 C-8.5859375 21.890625 -8.5859375 21.890625 -8 18 C-3.39130435 14 -3.39130435 14 0 14 C0 13.34 0 12.68 0 12 C-1.65 12 -3.3 12 -5 12 C-5.33 11.34 -5.66 10.68 -6 10 C-6.79664063 10.55880859 -6.79664063 10.55880859 -7.609375 11.12890625 C-8.31578125 11.60199219 -9.0221875 12.07507812 -9.75 12.5625 C-10.44609375 13.03816406 -11.1421875 13.51382812 -11.859375 14.00390625 C-14 15 -14 15 -16.265625 14.65234375 C-16.83796875 14.43707031 -17.4103125 14.22179688 -18 14 C-18 13.01 -18 12.02 -18 11 C-16.56298828 9.6496582 -16.56298828 9.6496582 -14.5703125 8.30078125 C-13.85746094 7.81416016 -13.14460937 7.32753906 -12.41015625 6.82617188 C-11.65605469 6.32666016 -10.90195312 5.82714844 -10.125 5.3125 C-9.00544922 4.54583008 -9.00544922 4.54583008 -7.86328125 3.76367188 C-2.28560998 0 -2.28560998 0 0 0 Z " fill="#DB0823" transform="translate(27,4)"/>
<path d="M0 0 C0 1.98 0 3.96 0 6 C-0.63808594 6.34933594 -1.27617188 6.69867188 -1.93359375 7.05859375 C-2.75988281 7.51363281 -3.58617187 7.96867187 -4.4375 8.4375 C-5.67306641 9.11619141 -5.67306641 9.11619141 -6.93359375 9.80859375 C-8.92308798 10.83662397 -8.92308798 10.83662397 -10 12 C-10.07205511 13.68608966 -10.08386068 15.37500659 -10.0625 17.0625 C-10.04896484 18.44115234 -10.04896484 18.44115234 -10.03515625 19.84765625 C-10.02355469 20.55792969 -10.01195312 21.26820312 -10 22 C-6.26360784 20.75453595 -5.81243487 19.36595047 -4 16 C-4.99 16.33 -5.98 16.66 -7 17 C-7 15.68 -7 14.36 -7 13 C-2.92857143 10 -2.92857143 10 0 10 C0.40105541 20.22691293 0.40105541 20.22691293 -2 24 C-4.625 25.3125 -4.625 25.3125 -7 26 C-7 26.66 -7 27.32 -7 28 C-7.99 28 -8.98 28 -10 28 C-10 28.66 -10 29.32 -10 30 C-11.65 30.33 -13.3 30.66 -15 31 C-15 31.66 -15 32.32 -15 33 C-15.66 33 -16.32 33 -17 33 C-17.02900455 29.3958502 -17.04680018 25.79173038 -17.0625 22.1875 C-17.07087891 21.16333984 -17.07925781 20.13917969 -17.08789062 19.08398438 C-17.09111328 18.10107422 -17.09433594 17.11816406 -17.09765625 16.10546875 C-17.10289307 15.19949951 -17.10812988 14.29353027 -17.11352539 13.36010742 C-17 11 -17 11 -16 8 C-14.35 7.67 -12.7 7.34 -11 7 C-11 6.34 -11 5.68 -11 5 C-9.02 4.34 -7.04 3.68 -5 3 C-5 2.34 -5 1.68 -5 1 C-3 0 -3 0 0 0 Z " fill="#100F0F" transform="translate(44,18)"/>
<path d="M0 0 C2.475 0.99 2.475 0.99 5 2 C5.01417969 2.95261719 5.02835938 3.90523437 5.04296875 4.88671875 C5.1358483 12.45370764 5.1358483 12.45370764 8.1875 19.125 C10.18847632 20.45898422 12.23664236 21.72331912 14.3125 22.9375 C15.199375 23.618125 16.08625 24.29875 17 25 C17.375 28.25 17.375 28.25 17 31 C11.23353441 28.19399665 5.08078719 25.06017611 1 20 C-0.27281496 15.95935093 -0.11066131 11.9437384 -0.0625 7.75 C-0.05798828 7.00492188 -0.05347656 6.25984375 -0.04882812 5.4921875 C-0.03709246 3.6614236 -0.0191585 1.83070127 0 0 Z " fill="#217C4A" transform="translate(7,20)"/>
<path d="M0 0 C0 0.99 0 1.98 0 3 C0.99 3 1.98 3 3 3 C3 4.98 3 6.96 3 9 C2.67 9 2.34 9 2 9 C2 7.35 2 5.7 2 4 C0.35 4.33 -1.3 4.66 -3 5 C-3 5.66 -3 6.32 -3 7 C-6 9 -6 9 -9 9 C-9 9.66 -9 10.32 -9 11 C-10.65 11.33 -12.3 11.66 -14 12 C-14.33 12.99 -14.66 13.98 -15 15 C-15.33 14.67 -15.66 14.34 -16 14 C-16.66 15.32 -17.32 16.64 -18 18 C-18.625 14.9375 -18.625 14.9375 -18 11 C-14.97348313 8.17290478 -11.53628487 6.132327 -8 4 C-6.82886422 3.19395513 -5.6611734 2.38283146 -4.5 1.5625 C-2 0 -2 0 0 0 Z " fill="#E9D5D9" transform="translate(42,14)"/>
<path d="M0 0 C-0.33 6.27 -0.66 12.54 -1 19 C-1.99 19 -2.98 19 -4 19 C-5.16571748 15.50284756 -5.2042776 12.62196323 -5.25 8.9375 C-5.27578125 7.68839844 -5.3015625 6.43929688 -5.328125 5.15234375 C-5.21984375 4.11207031 -5.1115625 3.07179688 -5 2 C-2 0 -2 0 0 0 Z " fill="#C90E27" transform="translate(25,21)"/>
<path d="M0 0 C0 0.66 0 1.32 0 2 C0.66 2.33 1.32 2.66 2 3 C0.35 3.66 -1.3 4.32 -3 5 C-2.67 5.99 -2.34 6.98 -2 8 C-1.34 8 -0.68 8 0 8 C-0.6875 10.375 -0.6875 10.375 -2 13 C-4.58203125 14.1640625 -4.58203125 14.1640625 -7 15 C-7.28782893 11.29020487 -7.44198495 7.70095835 -7 4 C-3.46511628 0 -3.46511628 0 0 0 Z " fill="#E5E5E6" transform="translate(40,26)"/>
<path d="M0 0 C0.99 0.33 1.98 0.66 3 1 C2.38609604 4.00130824 1.83770234 6.28468238 -0.55078125 8.32421875 C-3.24534721 9.96865408 -5.24356583 11.07758299 -8.4375 10.75 C-8.953125 10.5025 -9.46875 10.255 -10 10 C-10 9.01 -10 8.02 -10 7 C-7.91796875 5.140625 -7.91796875 5.140625 -5.1875 3.25 C-3.84751953 2.29867188 -3.84751953 2.29867188 -2.48046875 1.328125 C-1.25263672 0.67070312 -1.25263672 0.67070312 0 0 Z " fill="#C61D36" transform="translate(19,8)"/>
<path d="M0 0 C0.66 0 1.32 0 2 0 C2 5.28 2 10.56 2 16 C2.66 16 3.32 16 4 16 C4 16.66 4 17.32 4 18 C4.99 18.33 5.98 18.66 7 19 C6.34 19 5.68 19 5 19 C5.66 20.32 6.32 21.64 7 23 C3.06326356 21.68775452 0.77280706 20.08089673 -2 17 C-1.34 17 -0.68 17 0 17 C0 11.39 0 5.78 0 0 Z " fill="#FED4DC" transform="translate(17,22)"/>
<path d="M0 0 C0 1.98 0 3.96 0 6 C-4.95 8.475 -4.95 8.475 -10 11 C-10.33 9.02 -10.66 7.04 -11 5 C-9.02 4.34 -7.04 3.68 -5 3 C-5 2.34 -5 1.68 -5 1 C-3 0 -3 0 0 0 Z " fill="#0F0F0F" transform="translate(44,18)"/>
<path d="M0 0 C1.32 0 2.64 0 4 0 C4 5.28 4 10.56 4 16 C3.34 16 2.68 16 2 16 C-0.27141454 10.60539047 -0.20413361 5.73842251 0 0 Z " fill="#FAFEFD" transform="translate(13,23)"/>
<path d="M0 0 C2.9719385 1.12451727 5.33440687 2.22293791 8 4 C8.1875 7.125 8.1875 7.125 8 10 C4.22272911 8.18690997 0.62730178 6.0926741 -3 4 C-2.34 3.67 -1.68 3.34 -1 3 C-0.67 2.01 -0.34 1.02 0 0 Z " fill="#278350" transform="translate(16,41)"/>
<path d="M0 0 C0.66 0.33 1.32 0.66 2 1 C0.87926138 1.83905565 -0.24674547 2.67107831 -1.375 3.5 C-2.31472656 4.19609375 -2.31472656 4.19609375 -3.2734375 4.90625 C-5 6 -5 6 -7 6 C-7 5.01 -7 4.02 -7 3 C-8.98 3.99 -8.98 3.99 -11 5 C-11 9.95 -11 14.9 -11 20 C-11.66 20 -12.32 20 -13 20 C-13.13494246 17.3941111 -13.23402299 14.79517889 -13.3125 12.1875 C-13.35439453 11.44951172 -13.39628906 10.71152344 -13.43945312 9.95117188 C-13.48828125 7.79296875 -13.48828125 7.79296875 -13 4 C-10.62109375 1.96484375 -10.62109375 1.96484375 -8 1 C-5.75 1.375 -5.75 1.375 -4 2 C-3.67 1.67 -3.34 1.34 -3 1 C-2.01 0.67 -1.02 0.34 0 0 Z " fill="#BD2339" transform="translate(32,18)"/>
<path d="M0 0 C0.33 0 0.66 0 1 0 C1.33 3.63 1.66 7.26 2 11 C2.66 11 3.32 11 4 11 C5.6875 12.75 5.6875 12.75 7 15 C6.6875 17.25 6.6875 17.25 6 19 C4.125 18.875 4.125 18.875 2 18 C-0.96892886 12.50748161 -0.17657264 6.06232745 0 0 Z " fill="#108141" transform="translate(9,25)"/>
<path d="M0 0 C0.598125 0.350625 1.19625 0.70125 1.8125 1.0625 C1.4825 2.0525 1.1525 3.0425 0.8125 4.0625 C0.743509 6.12395107 0.72782273 8.18751401 0.75 10.25 C0.75902344 11.33667969 0.76804687 12.42335938 0.77734375 13.54296875 C0.78894531 14.37441406 0.80054688 15.20585938 0.8125 16.0625 C0.1525 16.0625 -0.5075 16.0625 -1.1875 16.0625 C-1.5175 11.4425 -1.8475 6.8225 -2.1875 2.0625 C-3.1775 2.0625 -4.1675 2.0625 -5.1875 2.0625 C-5.1875 1.4025 -5.1875 0.7425 -5.1875 0.0625 C-2.1875 -0.9375 -2.1875 -0.9375 0 0 Z " fill="#403F3F" transform="translate(33.1875,25.9375)"/>
<path d="M0 0 C0 0.66 0 1.32 0 2 C0.99 2.33 1.98 2.66 3 3 C2.34 3 1.68 3 1 3 C1.66 4.32 2.32 5.64 3 7 C-0.93673644 5.68775452 -3.22719294 4.08089673 -6 1 C-3.92446352 0.4465236 -2.15634036 0 0 0 Z " fill="#CDDDD2" transform="translate(21,38)"/>
<path d="M0 0 C5.28 0 10.56 0 16 0 C14.68 1.32 13.36 2.64 12 4 C11.34 4 10.68 4 10 4 C10 3.34 10 2.68 10 2 C6.7 1.67 3.4 1.34 0 1 C0 0.67 0 0.34 0 0 Z " fill="#AD2137" transform="translate(27,12)"/>
<path d="M0 0 C0 2.64 0 5.28 0 8 C-0.66 8 -1.32 8 -2 8 C-2 6.68 -2 5.36 -2 4 C-3.32 3.67 -4.64 3.34 -6 3 C-2.25 0 -2.25 0 0 0 Z " fill="#BB192F" transform="translate(27,4)"/>
<path d="M0 0 C1.32 0 2.64 0 4 0 C3.67 1.65 3.34 3.3 3 5 C2.34 4.67 1.68 4.34 1 4 C0.34 5.32 -0.32 6.64 -1 8 C-1.04241723 5.66705225 -1.04092937 3.33297433 -1 1 C-0.67 0.67 -0.34 0.34 0 0 Z " fill="#F9DBE1" transform="translate(25,24)"/>
<path d="M0 0 C3.3 0 6.6 0 10 0 C9.67 1.32 9.34 2.64 9 4 C8.01 4.33 7.02 4.66 6 5 C6 3.68 6 2.36 6 1 C4.02 1 2.04 1 0 1 C0 0.67 0 0.34 0 0 Z " fill="#CE0B26" transform="translate(28,13)"/>
<path d="M0 0 C0.66 0.33 1.32 0.66 2 1 C1.67 1.66 1.34 2.32 1 3 C0.34 3 -0.32 3 -1 3 C-1 3.99 -1 4.98 -1 6 C-2.32 5.34 -3.64 4.68 -5 4 C-3.35 2.68 -1.7 1.36 0 0 Z " fill="#CC2B42" transform="translate(16,10)"/>
</svg>
