<?xml version="1.0" encoding="UTF-8"?>
<svg version="1.1" xmlns="http://www.w3.org/2000/svg" width="393" height="368">
<path d="M0 0 C129.69 0 259.38 0 393 0 C393 121.44 393 242.88 393 368 C263.31 368 133.62 368 0 368 C0 246.56 0 125.12 0 0 Z " fill="#EFEFEF" transform="translate(0,0)"/>
<path d="M0 0 C2.7885289 -0.22107787 5.34653181 -0.28107535 8.125 -0.1875 C8.87910156 -0.17396484 9.63320312 -0.16042969 10.41015625 -0.14648438 C12.27374127 -0.11109985 14.13695978 -0.05729167 16 0 C13.92698121 3.6794607 12.76057678 5.18036607 9 7 C8.31731862 8.32520503 7.6492959 9.65812182 7 11 C6.01 11.33 5.02 11.66 4 12 C4 12.66 4 13.32 4 14 C14.89 14.495 14.89 14.495 26 15 C23.8412981 19.3174038 21.65464212 20.96742462 18 24 C17.505 25.485 17.505 25.485 17 27 C16.2972998 26.91508301 15.59459961 26.83016602 14.87060547 26.74267578 C-0.92300116 25.17607129 -0.92300116 25.17607129 -14.95840454 31.40878296 C-20.42739506 36.25635331 -25.23411716 41.7679489 -29.84130859 47.42871094 C-32.10162627 50.12105043 -34.41583286 52.61585244 -37 55 C-37.66 55 -38.32 55 -39 55 C-39 55.66 -39 56.32 -39 57 C-39.66 57 -40.32 57 -41 57 C-41.38285156 57.86963379 -41.38285156 57.86963379 -41.7734375 58.75683594 C-43.12584777 61.23015312 -44.63732524 62.89602109 -46.625 64.890625 C-47.68460938 65.95410156 -47.68460938 65.95410156 -48.765625 67.0390625 C-49.50296875 67.76867187 -50.2403125 68.49828125 -51 69.25 C-51.73734375 69.99507813 -52.4746875 70.74015625 -53.234375 71.5078125 C-53.94078125 72.21164063 -54.6471875 72.91546875 -55.375 73.640625 C-56.02210938 74.28547852 -56.66921875 74.93033203 -57.3359375 75.59472656 C-59 77 -59 77 -61 77 C-62.36180414 70.96033189 -63.01577185 65.19754985 -59.60546875 59.78790283 C-54.94002008 54.02898963 -49.43866861 49.07442744 -44 44.0625 C-42.35857091 42.49640298 -40.72051029 40.9267674 -39.0859375 39.35351562 C-35.09530211 35.52725724 -31.06497746 31.74710076 -27 28 C-30.41621788 27.85460047 -33.83163991 27.76590275 -37.25 27.6875 C-38.21808594 27.64560547 -39.18617188 27.60371094 -40.18359375 27.56054688 C-45.95177396 27.32413255 -45.95177396 27.32413255 -50.5847168 30.40698242 C-51.05176025 31.26267822 -51.51880371 32.11837402 -52 33 C-54.08082812 35.68700774 -55.90889825 37.51447052 -59 39 C-64.05570317 39.50557032 -68.93915549 39.35171892 -74 39 C-73.67 38.01 -73.34 37.02 -73 36 C-72.34 36 -71.68 36 -71 36 C-70.67 35.01 -70.34 34.02 -70 33 C-69.34 33 -68.68 33 -68 33 C-67.34 31.68 -66.68 30.36 -66 29 C-65.34 29 -64.68 29 -64 29 C-64 28.34 -64 27.68 -64 27 C-65.19238281 27.05800781 -66.38476562 27.11601562 -67.61328125 27.17578125 C-69.17964841 27.22267847 -70.74605784 27.26817868 -72.3125 27.3125 C-73.09818359 27.35439453 -73.88386719 27.39628906 -74.69335938 27.43945312 C-76.89835982 27.48636803 -78.8445022 27.473123 -81 27 C-82.875 24.65234375 -82.875 24.65234375 -84 22 C-85.64740076 20.3142876 -87.31066078 18.6436814 -89 17 C-89 16.67 -89 16.34 -89 16 C-76.13 16 -63.26 16 -50 16 C-49.67 14.68 -49.34 13.36 -49 12 C-48.34 12 -47.68 12 -47 12 C-46.67 11.01 -46.34 10.02 -46 9 C-45.34 9 -44.68 9 -44 9 C-43.7525 8.4225 -43.505 7.845 -43.25 7.25 C-41.81700012 4.67060021 -40.21575324 2.93878408 -38 1 C-37.34 1 -36.68 1 -36 1 C-36 5.95 -36 10.9 -36 16 C-28.74 16 -21.48 16 -14 16 C-14 15.34 -14 14.68 -14 14 C-11.625 11.375 -11.625 11.375 -9 9 C-8.34 9 -7.68 9 -7 9 C-7 8.34 -7 7.68 -7 7 C-5.34614767 5.65080468 -3.678298 4.31866272 -2 3 C-1.34 2.01 -0.68 1.02 0 0 Z " fill="#090808" transform="translate(196,4)"/>
<path d="M0 0 C1.44257886 0.03952271 2.88459177 0.11058817 4.32421875 0.2109375 C5.06478516 0.23800781 5.80535156 0.26507813 6.56835938 0.29296875 C8.38407873 0.36325466 10.19828676 0.47086661 12.01171875 0.5859375 C11.35171875 1.9059375 10.69171875 3.2259375 10.01171875 4.5859375 C9.35171875 4.5859375 8.69171875 4.5859375 8.01171875 4.5859375 C7.78484375 5.153125 7.55796875 5.7203125 7.32421875 6.3046875 C5.13142736 10.11596777 1.64479469 12.54855908 -1.67578125 15.3671875 C-3.80227195 17.40746912 -4.90723669 18.88332611 -5.98828125 21.5859375 C-3.34828125 21.5859375 -0.70828125 21.5859375 2.01171875 21.5859375 C2.01171875 25.2159375 2.01171875 28.8459375 2.01171875 32.5859375 C0.50480469 32.5653125 -1.00210938 32.5446875 -2.5546875 32.5234375 C-4.55340588 32.54220481 -6.55210462 32.56315335 -8.55078125 32.5859375 C-9.54142578 32.56660156 -10.53207031 32.54726562 -11.55273438 32.52734375 C-17.21481525 32.61353578 -17.21481525 32.61353578 -22.06738281 35.23364258 C-23.83774989 37.27702603 -25.4127723 39.39026785 -26.98828125 41.5859375 C-27.93588739 42.61228991 -28.90568921 43.61886291 -29.90234375 44.59765625 C-31.71618 46.38797012 -33.52867139 48.1796475 -35.33984375 49.97265625 C-36.98819829 51.59912998 -38.64105545 53.22106916 -40.30078125 54.8359375 C-42.58348213 57.17172445 -44.7326312 59.55934544 -46.88671875 62.01171875 C-59.33745026 75.79974073 -59.33745026 75.79974073 -65.50390625 76.76171875 C-69.09354204 76.8962572 -72.4914352 76.42146709 -75.98828125 75.5859375 C-74.57263366 72.36664238 -72.87515005 70.23299805 -70.38061523 67.76708984 C-69.64322617 67.03307953 -68.9058371 66.29906921 -68.14610291 65.54281616 C-67.3502327 64.76040558 -66.55436249 63.977995 -65.734375 63.171875 C-64.91832291 62.36102448 -64.10227081 61.55017395 -63.26148987 60.7147522 C-60.65428332 58.12536021 -58.04049137 55.54275063 -55.42578125 52.9609375 C-52.80838001 50.3711232 -50.19243476 47.77988018 -47.57936096 45.18569946 C-45.95280676 43.57143438 -44.32358757 41.95984944 -42.69151306 40.35116577 C-41.95727615 39.62345978 -41.22303925 38.89575378 -40.46655273 38.14599609 C-39.81750473 37.50520111 -39.16845673 36.86440613 -38.4997406 36.20419312 C-36.89894492 34.64367353 -36.89894492 34.64367353 -35.98828125 32.5859375 C-46.21828125 32.5859375 -56.44828125 32.5859375 -66.98828125 32.5859375 C-66.98828125 28.9559375 -66.98828125 25.3259375 -66.98828125 21.5859375 C-52.13828125 21.5859375 -37.28828125 21.5859375 -21.98828125 21.5859375 C-21.32828125 19.9359375 -20.66828125 18.2859375 -19.98828125 16.5859375 C-19.32828125 16.5859375 -18.66828125 16.5859375 -17.98828125 16.5859375 C-17.72660156 15.98523438 -17.46492188 15.38453125 -17.1953125 14.765625 C-15.91405326 12.45189473 -14.74021043 11.3313542 -12.67578125 9.7109375 C-10.15114786 7.72527079 -8.65242402 6.10410699 -6.77734375 3.4140625 C-3.58469779 0.17670161 -3.58469779 0.17670161 0 0 Z " fill="#0A0909" transform="translate(165.98828125,180.4140625)"/>
<path d="M0 0 C1.27230469 0.01804688 2.54460937 0.03609375 3.85546875 0.0546875 C4.83128906 0.07789063 5.80710938 0.10109375 6.8125 0.125 C5.19554525 3.76314819 3.45811113 5.81798608 0.8125 9.125 C13.3525 9.125 25.8925 9.125 38.8125 9.125 C38.8125 9.785 38.8125 10.445 38.8125 11.125 C37.760625 11.9603125 37.760625 11.9603125 36.6875 12.8125 C34.37529492 14.67231713 32.78768495 16.2469522 30.9375 18.5 C28.34495811 21.62708661 25.52416843 24.14681077 22.3984375 26.7265625 C20.63242213 28.20272429 20.63242213 28.20272429 18.8125 30.625 C17.09314833 32.77418959 15.53786161 34.26651378 13.4375 36 C10.96258809 38.05365031 8.8570407 40.14312439 6.8125 42.625 C4.26798435 45.71379708 1.47817237 48.18477258 -1.6015625 50.7265625 C-3.36757787 52.20272429 -3.36757787 52.20272429 -5.1875 54.625 C-6.90685167 56.77418959 -8.46213839 58.26651378 -10.5625 60 C-13.63724873 62.55138724 -16.1046791 65.30868673 -18.63671875 68.38671875 C-20.80231415 70.81414936 -23.24067949 72.82568546 -25.76953125 74.86328125 C-27.3244442 76.08979293 -27.3244442 76.08979293 -28.1875 78.125 C-28.8475 78.125 -29.5075 78.125 -30.1875 78.125 C-30.1875 72.845 -30.1875 67.565 -30.1875 62.125 C-29.5275 62.125 -28.8675 62.125 -28.1875 62.125 C-27.98125 61.59390625 -27.775 61.0628125 -27.5625 60.515625 C-25.60788808 57.11726564 -22.96626283 54.61444072 -20.1875 51.875 C-19.36765625 51.04355469 -19.36765625 51.04355469 -18.53125 50.1953125 C-14.4408867 46.125 -14.4408867 46.125 -12.1875 46.125 C-11.919375 45.485625 -11.65125 44.84625 -11.375 44.1875 C-10.1875 42.125 -10.1875 42.125 -7.1875 41.125 C-6.8575 40.135 -6.5275 39.145 -6.1875 38.125 C-5.5275 38.125 -4.8675 38.125 -4.1875 38.125 C-3.919375 37.485625 -3.65125 36.84625 -3.375 36.1875 C-2.1875 34.125 -2.1875 34.125 0.8125 33.125 C1.1425 32.135 1.4725 31.145 1.8125 30.125 C2.4725 30.125 3.1325 30.125 3.8125 30.125 C4.080625 29.485625 4.34875 28.84625 4.625 28.1875 C5.8125 26.125 5.8125 26.125 8.8125 25.125 C9.3075 23.64 9.3075 23.64 9.8125 22.125 C6.08392795 21.95028618 2.35641041 21.84401274 -1.375 21.75 C-2.43009766 21.69972656 -3.48519531 21.64945313 -4.57226562 21.59765625 C-10.05802129 21.3203831 -10.05802129 21.3203831 -14.93603516 23.38183594 C-16.45342445 25.14834358 -16.45342445 25.14834358 -18.1875 28.125 C-19.48828125 29.98828125 -19.48828125 29.98828125 -21.1875 31.125 C-23.99877043 31.34214241 -26.5758345 31.40784276 -29.375 31.3125 C-30.12458984 31.29896484 -30.87417969 31.28542969 -31.64648438 31.27148438 C-33.49379767 31.23618539 -35.34074066 31.18237917 -37.1875 31.125 C-34.5625 26.25 -34.5625 26.25 -31.1875 25.125 C-30.8575 24.135 -30.5275 23.145 -30.1875 22.125 C-29.5275 22.125 -28.8675 22.125 -28.1875 22.125 C-27.919375 21.485625 -27.65125 20.84625 -27.375 20.1875 C-26.1875 18.125 -26.1875 18.125 -23.1875 17.125 C-22.8575 16.135 -22.5275 15.145 -22.1875 14.125 C-21.5275 14.125 -20.8675 14.125 -20.1875 14.125 C-19.919375 13.485625 -19.65125 12.84625 -19.375 12.1875 C-18.1875 10.125 -18.1875 10.125 -15.1875 9.125 C-14.8575 8.135 -14.5275 7.145 -14.1875 6.125 C-13.5275 6.125 -12.8675 6.125 -12.1875 6.125 C-11.919375 5.50625 -11.65125 4.8875 -11.375 4.25 C-8.65554267 -0.61639733 -5.03032895 -0.09229961 0 0 Z " fill="#090909" transform="translate(191.1875,57.875)"/>
<path d="M0 0 C22.77 0 45.54 0 69 0 C67.06740118 3.86519764 65.39804114 5.84996256 62.38256836 8.86035156 C61.91571121 9.32910706 61.44885406 9.79786255 60.96784973 10.28082275 C59.43001796 11.82234676 57.88512739 13.35657399 56.33984375 14.890625 C55.26856136 15.96071501 54.19764867 17.03117524 53.12709045 18.10198975 C50.88655427 20.34096396 48.64270389 22.57654374 46.39624023 24.80957031 C43.51022987 27.67853992 40.63089776 30.55410005 37.7537756 33.43198013 C35.54512293 35.64036162 33.33387955 37.84613304 31.12173653 40.05101776 C30.05854642 41.11101673 28.9959688 42.17163038 27.93400383 43.23285675 C26.45451718 44.71018744 24.97179288 46.18418528 23.48803711 47.65722656 C22.64357529 48.49787659 21.79911346 49.33852661 20.92906189 50.20465088 C19 52 19 52 18 52 C16.47235694 38.31910766 16.47235694 38.31910766 20.05078125 32.88671875 C22.59284877 30.40490765 25.21352862 28.20070221 28 26 C30.36284334 23.70101729 32.66000855 21.35225568 34.94921875 18.98046875 C35.52285156 18.38878906 36.09648437 17.79710937 36.6875 17.1875 C37.26886719 16.58292969 37.85023438 15.97835937 38.44921875 15.35546875 C40 14 40 14 42 14 C42 13.01 42 12.02 42 11 C41.04746338 11.04713135 40.09492676 11.0942627 39.11352539 11.14282227 C35.54156171 11.30709859 31.96992201 11.40951633 28.39526367 11.49438477 C26.85562818 11.53934116 25.31637035 11.60053611 23.77807617 11.67895508 C11.04344245 12.31134682 11.04344245 12.31134682 5.92529297 9.02685547 C3.64046614 6.79217574 1.71865046 4.69215391 0 2 C0 1.34 0 0.68 0 0 Z " fill="#0B0B0B" transform="translate(181,143)"/>
<path d="M0 0 C1.47668858 0.0133035 2.95331108 0.03716415 4.4296875 0.0703125 C5.18378906 0.07933594 5.93789062 0.08835938 6.71484375 0.09765625 C8.57826004 0.1212438 10.44151343 0.15711531 12.3046875 0.1953125 C11.01264262 3.03834911 9.65566967 5.09291094 7.44140625 7.2890625 C6.60512695 8.12244141 6.60512695 8.12244141 5.75195312 8.97265625 C5.17123047 9.54113281 4.59050781 10.10960937 3.9921875 10.6953125 C3.42306641 11.26378906 2.85394531 11.83226562 2.26757812 12.41796875 C-0.9073947 15.56013474 -4.14195865 18.47529679 -7.6953125 21.1953125 C-7.10034496 24.52272358 -5.99054077 26.36621658 -3.7578125 28.8828125 C-3.23316406 29.48480469 -2.70851562 30.08679688 -2.16796875 30.70703125 C-0.7452982 32.30416529 -0.7452982 32.30416529 1.3046875 33.1953125 C1.3046875 40.1253125 1.3046875 47.0553125 1.3046875 54.1953125 C-2.3253125 54.1953125 -5.9553125 54.1953125 -9.6953125 54.1953125 C-9.6953125 44.6253125 -9.6953125 35.0553125 -9.6953125 25.1953125 C-13.0240646 26.30489653 -13.71020949 27.12075754 -15.8828125 29.7578125 C-16.50671875 30.47066406 -17.130625 31.18351562 -17.7734375 31.91796875 C-19.71039608 34.15612419 -19.71039608 34.15612419 -21.3671875 36.50390625 C-23.75500219 39.46754351 -25.71297704 41.84011673 -29.61376953 42.5390625 C-34.33360599 42.88240136 -38.98811822 42.60662074 -43.6953125 42.1953125 C-43.3653125 41.2053125 -43.0353125 40.2153125 -42.6953125 39.1953125 C-42.0353125 39.1953125 -41.3753125 39.1953125 -40.6953125 39.1953125 C-40.3653125 38.2053125 -40.0353125 37.2153125 -39.6953125 36.1953125 C-39.0353125 36.1953125 -38.3753125 36.1953125 -37.6953125 36.1953125 C-37.3653125 35.2053125 -37.0353125 34.2153125 -36.6953125 33.1953125 C-34.2578125 30.5078125 -34.2578125 30.5078125 -31.6953125 28.1953125 C-31.0353125 28.1953125 -30.3753125 28.1953125 -29.6953125 28.1953125 C-29.3653125 27.2053125 -29.0353125 26.2153125 -28.6953125 25.1953125 C-28.0353125 25.1953125 -27.3753125 25.1953125 -26.6953125 25.1953125 C-26.6953125 24.5353125 -26.6953125 23.8753125 -26.6953125 23.1953125 C-26.0353125 23.1953125 -25.3753125 23.1953125 -24.6953125 23.1953125 C-24.3653125 22.2053125 -24.0353125 21.2153125 -23.6953125 20.1953125 C-23.0353125 20.1953125 -22.3753125 20.1953125 -21.6953125 20.1953125 C-21.3653125 19.2053125 -21.0353125 18.2153125 -20.6953125 17.1953125 C-20.0353125 17.1953125 -19.3753125 17.1953125 -18.6953125 17.1953125 C-18.6953125 16.5353125 -18.6953125 15.8753125 -18.6953125 15.1953125 C-18.0353125 15.1953125 -17.3753125 15.1953125 -16.6953125 15.1953125 C-16.3653125 14.2053125 -16.0353125 13.2153125 -15.6953125 12.1953125 C-15.0353125 12.1953125 -14.3753125 12.1953125 -13.6953125 12.1953125 C-13.3653125 11.2053125 -13.0353125 10.2153125 -12.6953125 9.1953125 C-12.0353125 9.1953125 -11.3753125 9.1953125 -10.6953125 9.1953125 C-10.6953125 8.5353125 -10.6953125 7.8753125 -10.6953125 7.1953125 C-9.07191445 5.48647245 -7.40212197 3.82084533 -5.6953125 2.1953125 C-3.6953125 0.1953125 -3.6953125 0.1953125 0 0 Z " fill="#050505" transform="translate(173.6953125,222.8046875)"/>
<path d="M0 0 C1.051875 0.01160156 1.051875 0.01160156 2.125 0.0234375 C2.82625 0.01570313 3.5275 0.00796875 4.25 0 C6.125 0.3984375 6.125 0.3984375 8.125 3.3984375 C8.3203125 5.66015625 8.3203125 5.66015625 8.25 8.0859375 C8.23195312 8.89417969 8.21390625 9.70242188 8.1953125 10.53515625 C8.17210937 11.15003906 8.14890625 11.76492188 8.125 12.3984375 C8.96804687 11.89183594 8.96804687 11.89183594 9.828125 11.375 C12.52226644 10.2295317 14.00538233 10.3514349 16.875 10.7734375 C17.67421875 10.88429688 18.4734375 10.99515625 19.296875 11.109375 C20.20179688 11.25246094 20.20179688 11.25246094 21.125 11.3984375 C22.08219944 15.4665351 22.56170609 17.57743004 20.5625 21.3359375 C18.125 23.3984375 18.125 23.3984375 14.875 23.7109375 C13.9675 23.6078125 13.06 23.5046875 12.125 23.3984375 C12.125 24.0584375 12.125 24.7184375 12.125 25.3984375 C13.445 25.7284375 14.765 26.0584375 16.125 26.3984375 C16.125 29.6984375 16.125 32.9984375 16.125 36.3984375 C15.465 36.3984375 14.805 36.3984375 14.125 36.3984375 C13.795 37.0584375 13.465 37.7184375 13.125 38.3984375 C9.8125 38.2109375 9.8125 38.2109375 6.125 37.3984375 C3.77614231 34.51919258 3.125 33.12370817 3.125 29.3984375 C2.465 29.3984375 1.805 29.3984375 1.125 29.3984375 C0.856875 30.3678125 0.58875 31.3371875 0.3125 32.3359375 C-0.079375 33.3465625 -0.47125 34.3571875 -0.875 35.3984375 C-2.36 35.8934375 -2.36 35.8934375 -3.875 36.3984375 C-3.875 37.0584375 -3.875 37.7184375 -3.875 38.3984375 C-5.525 38.3984375 -7.175 38.3984375 -8.875 38.3984375 C-8.875 37.7384375 -8.875 37.0784375 -8.875 36.3984375 C-10.195 36.0684375 -11.515 35.7384375 -12.875 35.3984375 C-13 29.6484375 -13 29.6484375 -11.875 27.3984375 C-11.215 27.3984375 -10.555 27.3984375 -9.875 27.3984375 C-9.875 26.7384375 -9.875 26.0784375 -9.875 25.3984375 C-9.215 25.3984375 -8.555 25.3984375 -7.875 25.3984375 C-7.875 24.7384375 -7.875 24.0784375 -7.875 23.3984375 C-8.968125 23.1303125 -10.06125 22.8621875 -11.1875 22.5859375 C-16.51039446 20.87178505 -16.51039446 20.87178505 -17.875 18.3984375 C-17.6875 14.7734375 -17.6875 14.7734375 -16.875 11.3984375 C-13.74793041 9.8349027 -10.29517557 9.99885263 -6.875 10.3984375 C-5.885 11.0584375 -4.895 11.7184375 -3.875 12.3984375 C-3.89820313 11.78355469 -3.92140625 11.16867187 -3.9453125 10.53515625 C-3.97238281 9.32279297 -3.97238281 9.32279297 -4 8.0859375 C-4.02320313 7.28542969 -4.04640625 6.48492187 -4.0703125 5.66015625 C-3.81299897 2.6804656 -3.12538146 0.66414356 0 0 Z " fill="#F693AD" transform="translate(211.875,324.6015625)"/>
<path d="M0 0 C0.13536629 2.41854446 0.23420279 4.82949783 0.3125 7.25 C0.35439453 7.93191406 0.39628906 8.61382812 0.43945312 9.31640625 C0.48828125 11.328125 0.48828125 11.328125 0 15 C-2.08203125 16.984375 -2.08203125 16.984375 -5 19 C-6.07501269 20.16091632 -7.11757208 21.35224422 -8.13671875 22.5625 C-12.32850294 27.45953967 -16.8334108 32.01950372 -21.39038086 36.57568359 C-22.83281856 38.02034996 -24.26701565 39.47289854 -25.70117188 40.92578125 C-26.61060547 41.83714844 -27.52003906 42.74851562 -28.45703125 43.6875 C-29.28178955 44.51636719 -30.10654785 45.34523438 -30.95629883 46.19921875 C-33 48 -33 48 -35 48 C-35 48.66 -35 49.32 -35 50 C-35.66 50 -36.32 50 -37 50 C-37.2475 50.61875 -37.495 51.2375 -37.75 51.875 C-39.20628639 54.35068687 -40.37812506 54.95125002 -43 56 C-43 56.66 -43 57.32 -43 58 C-43.66 58 -44.32 58 -45 58 C-45.25523437 58.59296875 -45.51046875 59.1859375 -45.7734375 59.796875 C-47.11816498 62.21224538 -48.49214367 63.51211706 -50.625 65.25 C-51.57246094 66.03117187 -51.57246094 66.03117187 -52.5390625 66.828125 C-53.02117187 67.21484375 -53.50328125 67.6015625 -54 68 C-54.08089542 65.22858283 -54.14044062 62.45952181 -54.1875 59.6875 C-54.22520508 58.50897461 -54.22520508 58.50897461 -54.26367188 57.30664062 C-54.27333984 56.54931641 -54.28300781 55.79199219 -54.29296875 55.01171875 C-54.3086792 54.31522217 -54.32438965 53.61872559 -54.34057617 52.90112305 C-53.89567045 50.41762422 -52.96642914 49.52898008 -51 48 C-50.34 48 -49.68 48 -49 48 C-48.34 46.68 -47.68 45.36 -47 44 C-46.34 44 -45.68 44 -45 44 C-44.34 42.68 -43.68 41.36 -43 40 C-42.34 40 -41.68 40 -41 40 C-40.773125 39.4225 -40.54625 38.845 -40.3125 38.25 C-38.65238361 35.40408619 -36.60812043 34.00158079 -34 32 C-31.13833918 29.28509102 -28.52553788 26.46039445 -26 23.4375 C-23.5749903 20.55741136 -20.96733878 18.32575202 -18 16 C-17.443125 15.2575 -16.88625 14.515 -16.3125 13.75 C-15.879375 13.1725 -15.44625 12.595 -15 12 C-14.34 12 -13.68 12 -13 12 C-12.34 10.68 -11.68 9.36 -11 8 C-10.34 8 -9.68 8 -9 8 C-8.7525 7.4225 -8.505 6.845 -8.25 6.25 C-6.15415198 2.47747356 -4.46699396 0 0 0 Z " fill="#060606" transform="translate(209,284)"/>
<path d="M0 0 C2.4164124 0.48328248 4.65832183 1.21944061 7 2 C7 1.34 7 0.68 7 0 C10 0 10 0 11.6875 1.5 C12.120625 1.995 12.55375 2.49 13 3 C13.33 2.01 13.66 1.02 14 0 C18.29 0 22.58 0 27 0 C27.33 0.66 27.66 1.32 28 2 C28.33 1.34 28.66 0.68 29 0 C31.475 0.495 31.475 0.495 34 1 C34.1953125 3.05078125 34.390625 5.1015625 34.5859375 7.15234375 C34.79089844 8.06693359 34.79089844 8.06693359 35 9 C35.66 9.33 36.32 9.66 37 10 C37 10.66 37 11.32 37 12 C38.32 12.33 39.64 12.66 41 13 C40.67 15.31 40.34 17.62 40 20 C39.01 20 38.02 20 37 20 C36.505 18.515 36.505 18.515 36 17 C35.505 18.485 35.505 18.485 35 20 C31.85463232 20.19594676 28.70869386 20.3803401 25.5625 20.5625 C24.66466797 20.61857422 23.76683594 20.67464844 22.84179688 20.73242188 C21.98779297 20.78076172 21.13378906 20.82910156 20.25390625 20.87890625 C19.46314697 20.9260376 18.6723877 20.97316895 17.85766602 21.02172852 C16 21 16 21 15 20 C14.95833998 17.6670386 14.95833998 15.3329614 15 13 C15 12.67 15 12.34 15 12 C14.34 11.67 13.68 11.34 13 11 C13.33 10.01 13.66 9.02 14 8 C12.01508358 8.26676204 12.01508358 8.26676204 10 9 C9.67 9.99 9.34 10.98 9 12 C11.475 12.99 11.475 12.99 14 14 C14 15.98 14 17.96 14 20 C13.40832031 20.06058594 12.81664062 20.12117188 12.20703125 20.18359375 C8.76318281 20.54876528 5.39317337 20.91808888 2 21.625 C1.34 21.74875 0.68 21.8725 0 22 C-1 21 -1 21 -1.125 17.1875 C-1.09900018 14.28592015 -0.78453392 11.80190685 0 9 C-0.33 8.67 -0.66 8.34 -1 8 C-1.125 4.5 -1.125 4.5 -1 1 C-0.67 0.67 -0.34 0.34 0 0 Z " fill="#DEDEDE" transform="translate(198,238)"/>
<path d="M0 0 C8.58 0 17.16 0 26 0 C26.495 1.485 26.495 1.485 27 3 C27.66 3.33 28.32 3.66 29 4 C28.01 4.33 27.02 4.66 26 5 C24.32932867 6.99665598 22.66247014 8.99651034 21 11 C20.34 11 19.68 11 19 11 C19 11.66 19 12.32 19 13 C16.625 15.625 16.625 15.625 14 18 C13.34 18 12.68 18 12 18 C12 18.66 12 19.32 12 20 C4.74 20 -2.52 20 -10 20 C-10.33 14.72 -10.66 9.44 -11 4 C-6.38 3.67 -1.76 3.34 3 3 C2.01 2.01 1.02 1.02 0 0 Z " fill="#EEEDED" transform="translate(170,0)"/>
<path d="M0 0 C3.96 0 7.92 0 12 0 C12.25013236 3.94593417 12.42993195 7.88871741 12.54931641 11.84082031 C12.62343851 13.83303128 12.75061783 15.82304261 12.87890625 17.8125 C13.02173532 23.46853115 13.09008242 27.42608162 9.79980469 32.17675781 C7.3141623 34.71248871 4.90636358 36.96163828 2 39 C1.34 39 0.68 39 0 39 C0 26.13 0 13.26 0 0 Z " fill="#171717" transform="translate(128,286)"/>
<path d="M0 0 C4.99854577 -0.19870375 9.99476527 -0.3433522 14.99633789 -0.43945312 C16.69498764 -0.47953163 18.393364 -0.53401432 20.09106445 -0.60351562 C34.22023458 -1.16719035 34.22023458 -1.16719035 38.60888672 1.7109375 C40.36208855 3.72566668 41.66284467 5.69710596 43 8 C43.96993327 9.02918873 44.96155582 10.03998245 46 11 C40.71661101 11.19860929 35.4354184 11.3433133 30.14916992 11.43945312 C28.35353732 11.47954648 26.55816366 11.53403986 24.76342773 11.60351562 C9.86760632 12.16546617 9.86760632 12.16546617 5.25830078 9.2890625 C2.60846639 6.33110783 1.25190996 3.75572987 0 0 Z " fill="#0B0A0A" transform="translate(192,123)"/>
<path d="M0 0 C3.63 0 7.26 0 11 0 C11.19906641 4.14402667 11.3435041 8.28546488 11.43945312 12.43286133 C11.47947543 13.84058131 11.53391768 15.24797305 11.60351562 16.65454102 C12.16617655 28.32561808 12.16617655 28.32561808 9.2890625 32.45654297 C7.27265451 34.23705708 5.31846911 35.64485816 3 37 C2.01 37.66 1.02 38.32 0 39 C0 26.13 0 13.26 0 0 Z " fill="#090909" transform="translate(148,286)"/>
<path d="M0 0 C0 0.99 0 1.98 0 3 C-0.99 3.66 -1.98 4.32 -3 5 C-2.67 6.32 -2.34 7.64 -2 9 C-1.01 9 -0.02 9 1 9 C1.99 6.36 2.98 3.72 4 1 C5.32 1.33 6.64 1.66 8 2 C9.75 5.0625 9.75 5.0625 11 8 C11.33 5.69 11.66 3.38 12 1 C19.33834586 0.63909774 19.33834586 0.63909774 22.0625 2.125 C23.49993201 4.99986403 22.82133745 6.96736942 22 10 C21.34 10.99 20.68 11.98 20 13 C17.3984375 13.29296875 17.3984375 13.29296875 14.375 13.1875 C12.87066406 13.14689453 12.87066406 13.14689453 11.3359375 13.10546875 C10.56507813 13.07066406 9.79421875 13.03585938 9 13 C8.67 12.01 8.34 11.02 8 10 C6.35 10 4.7 10 3 10 C3 10.66 3 11.32 3 12 C-3.4 12.49230769 -3.4 12.49230769 -6.4375 10 C-6.953125 9.34 -7.46875 8.68 -8 8 C-8 9.32 -8 10.64 -8 12 C-8.99 12 -9.98 12 -11 12 C-11 8.37 -11 4.74 -11 1 C-7.1273408 0.0318352 -3.96388638 -0.07622858 0 0 Z " fill="#1E1E1E" transform="translate(208,216)"/>
<path d="M0 0 C4.00754167 1.33584722 5.37476236 3.76893828 8 7 C8.66 7.33 9.32 7.66 10 8 C10 14.93 10 21.86 10 29 C6.7 29 3.4 29 0 29 C0 19.43 0 9.86 0 0 Z " fill="#060405" transform="translate(165,248)"/>
<path d="M0 0 C0.66 0 1.32 0 2 0 C2.350625 1.11375 2.70125 2.2275 3.0625 3.375 C3.80330632 5.33181479 3.80330632 5.33181479 5 7 C8.55892288 8.53045985 8.55892288 8.53045985 12 9 C12.33 8.01 12.66 7.02 13 6 C13.66 6.33 14.32 6.66 15 7 C15 4.69 15 2.38 15 0 C15.99 0.33 16.98 0.66 18 1 C17.25531915 8.74468085 17.25531915 8.74468085 14 12 C13.34 12 12.68 12 12 12 C12 12.66 12 13.32 12 14 C6.06 14 0.12 14 -6 14 C-5.67 12.68 -5.34 11.36 -5 10 C-7.31 10 -9.62 10 -12 10 C-12.33 9.01 -12.66 8.02 -13 7 C-12.01 7 -11.02 7 -10 7 C-10 7.66 -10 8.32 -10 9 C-8.35 9 -6.7 9 -5 9 C-5 8.34 -5 7.68 -5 7 C-4 6 -3 5 -2 4 C-0.82425289 1.90010348 -0.82425289 1.90010348 0 0 Z " fill="#F5E9EC" transform="translate(213,354)"/>
<path d="M0 0 C0 4.95 0 9.9 0 15 C-0.33 15 -0.66 15 -1 15 C-1.495 9.06 -1.495 9.06 -2 3 C-3.26183105 4.27230469 -4.52366211 5.54460937 -5.82373047 6.85546875 C-9.98660351 11.05054747 -14.15407564 15.24102495 -18.32473564 19.42835999 C-20.85408592 21.96816272 -23.38153608 24.50979865 -25.90478516 27.05566406 C-28.80341887 29.98011644 -31.71004502 32.89650571 -34.6171875 35.8125 C-35.52556366 36.73119873 -36.43393982 37.64989746 -37.36984253 38.59643555 C-38.21056305 39.43730713 -39.05128357 40.27817871 -39.91748047 41.14453125 C-40.65916473 41.89065674 -41.400849 42.63678223 -42.16500854 43.40551758 C-44 45 -44 45 -46 45 C-46.2475 45.5775 -46.495 46.155 -46.75 46.75 C-48 49 -48 49 -50.0625 50.6875 C-52.76550516 53.91366745 -52.40339204 56.10841481 -52.25 60.25 C-52.21390625 61.51328125 -52.1778125 62.7765625 -52.140625 64.078125 C-52.09421875 65.04234375 -52.0478125 66.0065625 -52 67 C-52.99 67.495 -52.99 67.495 -54 68 C-54.08089542 65.22858283 -54.14044062 62.45952181 -54.1875 59.6875 C-54.22520508 58.50897461 -54.22520508 58.50897461 -54.26367188 57.30664062 C-54.27333984 56.54931641 -54.28300781 55.79199219 -54.29296875 55.01171875 C-54.3086792 54.31522217 -54.32438965 53.61872559 -54.34057617 52.90112305 C-53.89567045 50.41762422 -52.96642914 49.52898008 -51 48 C-50.34 48 -49.68 48 -49 48 C-48.34 46.68 -47.68 45.36 -47 44 C-46.34 44 -45.68 44 -45 44 C-44.34 42.68 -43.68 41.36 -43 40 C-42.34 40 -41.68 40 -41 40 C-40.773125 39.4225 -40.54625 38.845 -40.3125 38.25 C-38.65238361 35.40408619 -36.60812043 34.00158079 -34 32 C-31.13833918 29.28509102 -28.52553788 26.46039445 -26 23.4375 C-23.5749903 20.55741136 -20.96733878 18.32575202 -18 16 C-17.443125 15.2575 -16.88625 14.515 -16.3125 13.75 C-15.879375 13.1725 -15.44625 12.595 -15 12 C-14.34 12 -13.68 12 -13 12 C-12.34 10.68 -11.68 9.36 -11 8 C-10.34 8 -9.68 8 -9 8 C-8.7525 7.4225 -8.505 6.845 -8.25 6.25 C-6.15415198 2.47747356 -4.46699396 0 0 0 Z " fill="#353031" transform="translate(209,284)"/>
<path d="M0 0 C1.47668858 0.0133035 2.95331108 0.03716415 4.4296875 0.0703125 C5.18378906 0.07933594 5.93789062 0.08835938 6.71484375 0.09765625 C8.57826004 0.1212438 10.44151343 0.15711531 12.3046875 0.1953125 C11.9746875 0.8553125 11.6446875 1.5153125 11.3046875 2.1953125 C10.05997429 2.05446228 10.05997429 2.05446228 8.79011536 1.9107666 C2.59026055 1.50723086 -1.72262198 1.41539804 -6.56762695 5.59179688 C-8.09836877 7.12457042 -9.5944444 8.69255634 -11.05859375 10.2890625 C-11.86145309 11.11031616 -12.66431244 11.93156982 -13.49150085 12.77770996 C-16.029294 15.38782905 -18.51796213 18.03950422 -21.0078125 20.6953125 C-22.72805867 22.48081888 -24.4513398 24.26340652 -26.17773438 26.04296875 C-30.38612807 30.39409737 -34.55107012 34.78307557 -38.6953125 39.1953125 C-34.7353125 39.5253125 -30.7753125 39.8553125 -26.6953125 40.1953125 C-27.0253125 40.8553125 -27.3553125 41.5153125 -27.6953125 42.1953125 C-32.9753125 42.1953125 -38.2553125 42.1953125 -43.6953125 42.1953125 C-43.3653125 41.2053125 -43.0353125 40.2153125 -42.6953125 39.1953125 C-42.0353125 39.1953125 -41.3753125 39.1953125 -40.6953125 39.1953125 C-40.3653125 38.2053125 -40.0353125 37.2153125 -39.6953125 36.1953125 C-39.0353125 36.1953125 -38.3753125 36.1953125 -37.6953125 36.1953125 C-37.3653125 35.2053125 -37.0353125 34.2153125 -36.6953125 33.1953125 C-34.2578125 30.5078125 -34.2578125 30.5078125 -31.6953125 28.1953125 C-31.0353125 28.1953125 -30.3753125 28.1953125 -29.6953125 28.1953125 C-29.3653125 27.2053125 -29.0353125 26.2153125 -28.6953125 25.1953125 C-28.0353125 25.1953125 -27.3753125 25.1953125 -26.6953125 25.1953125 C-26.6953125 24.5353125 -26.6953125 23.8753125 -26.6953125 23.1953125 C-26.0353125 23.1953125 -25.3753125 23.1953125 -24.6953125 23.1953125 C-24.3653125 22.2053125 -24.0353125 21.2153125 -23.6953125 20.1953125 C-23.0353125 20.1953125 -22.3753125 20.1953125 -21.6953125 20.1953125 C-21.3653125 19.2053125 -21.0353125 18.2153125 -20.6953125 17.1953125 C-20.0353125 17.1953125 -19.3753125 17.1953125 -18.6953125 17.1953125 C-18.6953125 16.5353125 -18.6953125 15.8753125 -18.6953125 15.1953125 C-18.0353125 15.1953125 -17.3753125 15.1953125 -16.6953125 15.1953125 C-16.3653125 14.2053125 -16.0353125 13.2153125 -15.6953125 12.1953125 C-15.0353125 12.1953125 -14.3753125 12.1953125 -13.6953125 12.1953125 C-13.3653125 11.2053125 -13.0353125 10.2153125 -12.6953125 9.1953125 C-12.0353125 9.1953125 -11.3753125 9.1953125 -10.6953125 9.1953125 C-10.6953125 8.5353125 -10.6953125 7.8753125 -10.6953125 7.1953125 C-9.07191445 5.48647245 -7.40212197 3.82084533 -5.6953125 2.1953125 C-3.6953125 0.1953125 -3.6953125 0.1953125 0 0 Z " fill="#434343" transform="translate(173.6953125,222.8046875)"/>
<path d="M0 0 C5.61 0 11.22 0 17 0 C12 5 12 5 9.796875 7.16796875 C9.12140625 7.83441406 8.4459375 8.50085938 7.75 9.1875 C7.06421875 9.86167969 6.3784375 10.53585937 5.671875 11.23046875 C3.92550889 12.90798995 3.92550889 12.90798995 3 15 C9.6 15 16.2 15 23 15 C23 15.33 23 15.66 23 16 C15.74 16 8.48 16 1 16 C0.67 10.72 0.34 5.44 0 0 Z " fill="#B88895" transform="translate(159,4)"/>
<path d="M0 0 C1.051875 0.01160156 1.051875 0.01160156 2.125 0.0234375 C2.82625 0.01570313 3.5275 0.00796875 4.25 0 C6.125 0.3984375 6.125 0.3984375 8.125 3.3984375 C8.3203125 5.66015625 8.3203125 5.66015625 8.25 8.0859375 C8.23195312 8.89417969 8.21390625 9.70242188 8.1953125 10.53515625 C8.17210937 11.15003906 8.14890625 11.76492188 8.125 12.3984375 C8.96804687 11.89183594 8.96804687 11.89183594 9.828125 11.375 C12.52226644 10.2295317 14.00538233 10.3514349 16.875 10.7734375 C17.67421875 10.88429688 18.4734375 10.99515625 19.296875 11.109375 C20.20179688 11.25246094 20.20179688 11.25246094 21.125 11.3984375 C22.08219944 15.4665351 22.56170609 17.57743004 20.5625 21.3359375 C18.125 23.3984375 18.125 23.3984375 14.875 23.7109375 C13.9675 23.6078125 13.06 23.5046875 12.125 23.3984375 C12.125 24.0584375 12.125 24.7184375 12.125 25.3984375 C11.465 25.3984375 10.805 25.3984375 10.125 25.3984375 C10.455 24.4084375 10.785 23.4184375 11.125 22.3984375 C12.548125 22.305625 12.548125 22.305625 14 22.2109375 C17.28010282 21.74128539 17.28010282 21.74128539 18.5625 19.0859375 C19.37676851 16.16978707 19.37676851 16.16978707 18.125 12.3984375 C14.495 12.7284375 10.865 13.0584375 7.125 13.3984375 C6.795 10.7584375 6.465 8.1184375 6.125 5.3984375 C3.485 4.4084375 0.845 3.4184375 -1.875 2.3984375 C-2.205 6.0284375 -2.535 9.6584375 -2.875 13.3984375 C-6.835 13.0684375 -10.795 12.7384375 -14.875 12.3984375 C-14.875 15.0384375 -14.875 17.6784375 -14.875 20.3984375 C-15.865 19.7384375 -16.855 19.0784375 -17.875 18.3984375 C-17.61938677 16.0553162 -17.28229228 13.72000347 -16.875 11.3984375 C-13.74793041 9.8349027 -10.29517557 9.99885263 -6.875 10.3984375 C-5.885 11.0584375 -4.895 11.7184375 -3.875 12.3984375 C-3.89820313 11.78355469 -3.92140625 11.16867187 -3.9453125 10.53515625 C-3.97238281 9.32279297 -3.97238281 9.32279297 -4 8.0859375 C-4.02320313 7.28542969 -4.04640625 6.48492187 -4.0703125 5.66015625 C-3.81299897 2.6804656 -3.12538146 0.66414356 0 0 Z " fill="#ECA9BB" transform="translate(211.875,324.6015625)"/>
<path d="M0 0 C0.99 0 1.98 0 3 0 C3 1.32 3 2.64 3 4 C3.598125 3.484375 4.19625 2.96875 4.8125 2.4375 C5.534375 1.963125 6.25625 1.48875 7 1 C7.99 1.33 8.98 1.66 10 2 C9.34 2.66 8.68 3.32 8 4 C8.08571661 6.09291157 8.08571661 6.09291157 9 8 C9.99 8.33 10.98 8.66 12 9 C13.32 6.03 14.64 3.06 16 0 C16.99 0 17.98 0 19 0 C19.67119549 1.4562545 20.33681807 2.91507867 21 4.375 C21.556875 5.59316406 21.556875 5.59316406 22.125 6.8359375 C23 9 23 9 23 11 C22.01 11 21.02 11 20 11 C20 10.34 20 9.68 20 9 C18.35 9 16.7 9 15 9 C15 9.66 15 10.32 15 11 C8.6 11.49230769 8.6 11.49230769 5.5625 9 C5.046875 8.34 4.53125 7.68 4 7 C3.67 8.32 3.34 9.64 3 11 C2.01 11 1.02 11 0 11 C0 7.37 0 3.74 0 0 Z " fill="#1D1D1D" transform="translate(245,217)"/>
<path d="M0 0 C0 4.95 0 9.9 0 15 C0.66 15 1.32 15 2 15 C2.33 14.01 2.66 13.02 3 12 C3.33 12.66 3.66 13.32 4 14 C3.67 14.66 3.34 15.32 3 16 C-2.94 16 -8.88 16 -15 16 C-9.375 8.125 -9.375 8.125 -6 7 C-5.29848848 5.6846659 -4.63474075 4.34882408 -4 3 C-1.32142857 0 -1.32142857 0 0 0 Z " fill="#D5A3B1" transform="translate(161,121)"/>
<path d="M0 0 C1.48831242 0.00667405 2.97660807 0.01863442 4.46484375 0.03515625 C5.22345703 0.03966797 5.98207031 0.04417969 6.76367188 0.04882812 C8.64326246 0.06064945 10.52281274 0.07858547 12.40234375 0.09765625 C12.40234375 0.75765625 12.40234375 1.41765625 12.40234375 2.09765625 C11.74234375 2.09765625 11.08234375 2.09765625 10.40234375 2.09765625 C10.15484375 2.69578125 9.90734375 3.29390625 9.65234375 3.91015625 C8.2216185 6.41392544 6.83318555 7.57838013 4.40234375 9.09765625 C3.74234375 9.09765625 3.08234375 9.09765625 2.40234375 9.09765625 C1.74234375 10.74765625 1.08234375 12.39765625 0.40234375 14.09765625 C-0.25765625 14.09765625 -0.91765625 14.09765625 -1.59765625 14.09765625 C-1.92765625 14.75765625 -2.25765625 15.41765625 -2.59765625 16.09765625 C-2.59765625 11.47765625 -2.59765625 6.85765625 -2.59765625 2.09765625 C-3.25765625 1.76765625 -3.91765625 1.43765625 -4.59765625 1.09765625 C-3.59765625 0.09765625 -3.59765625 0.09765625 0 0 Z " fill="#DA9AAB" transform="translate(211.59765625,281.90234375)"/>
<path d="M0 0 C0.33 0 0.66 0 1 0 C1 5.28 1 10.56 1 16 C-3.95 16 -8.9 16 -14 16 C-12.86229696 12.58689088 -11.38036546 11.57874969 -8.625 9.40625 C-6.94498085 7.95238728 -5.62811605 6.4265512 -4.25 4.6875 C-3.5075 3.800625 -2.765 2.91375 -2 2 C-1.34 2 -0.68 2 0 2 C0 1.34 0 0.68 0 0 Z " fill="#F593AE" transform="translate(198,179)"/>
<path d="M0 0 C0.33 0 0.66 0 1 0 C1 4.95 1 9.9 1 15 C1.66 15.33 2.32 15.66 3 16 C-2.28 16 -7.56 16 -13 16 C-10.96053655 11.92107309 -9.03944691 9.3433916 -6 6 C-5.34 6 -4.68 6 -4 6 C-4 5.34 -4 4.68 -4 4 C-3.34 4 -2.68 4 -2 4 C-2 3.34 -2 2.68 -2 2 C-1.34 2 -0.68 2 0 2 C0 1.34 0 0.68 0 0 Z " fill="#E597AD" transform="translate(134,66)"/>
<path d="M0 0 C0.33 0 0.66 0 1 0 C1 5.28 1 10.56 1 16 C-3.62 16 -8.24 16 -13 16 C-10.25727687 10.62004309 -7.72154999 7.71696488 -3 4 C-1.97186389 2.68824014 -0.95915568 1.3630107 0 0 Z " fill="#EC95AB" transform="translate(154,336)"/>
<path d="M0 0 C7.33834586 -0.36090226 7.33834586 -0.36090226 10.0625 1.125 C11.49993201 3.99986403 10.82133745 5.96736942 10 9 C9.01 10.485 9.01 10.485 8 12 C5.3984375 12.29296875 5.3984375 12.29296875 2.375 12.1875 C0.87066406 12.14689453 0.87066406 12.14689453 -0.6640625 12.10546875 C-1.43492187 12.07066406 -2.20578125 12.03585938 -3 12 C-2.34 11.67 -1.68 11.34 -1 11 C-0.5316735 8.41394668 -0.5316735 8.41394668 -0.375 5.4375 C-0.30023438 4.42558594 -0.22546875 3.41367188 -0.1484375 2.37109375 C-0.09945312 1.58863281 -0.05046875 0.80617187 0 0 Z " fill="#848484" transform="translate(220,217)"/>
<path d="M0 0 C1.875 1.125 1.875 1.125 3 3 C3.375 6.0625 3.375 6.0625 3 9 C-0.46998729 11.31332486 -1.92509248 11.33957563 -6 11 C-6.99 10.34 -7.98 9.68 -9 9 C-9.39964378 5.8694571 -9.52149743 3.86916239 -7.875 1.125 C-5.11909116 -0.52854531 -3.14924548 -0.39365568 0 0 Z " fill="#3F3F3F" transform="translate(241,217)"/>
<path d="M0 0 C3.63 0 7.26 0 11 0 C11 3.96 11 7.92 11 12 C-1.21 12 -13.42 12 -26 12 C-26 11.67 -26 11.34 -26 11 C-8.675 10.505 -8.675 10.505 9 10 C7.35 8.68 5.7 7.36 4 6 C2.60644236 4.04148656 1.25717453 2.04872887 0 0 Z " fill="#CFB2B9" transform="translate(228,123)"/>
<path d="M0 0 C1.27230469 0.01804688 2.54460937 0.03609375 3.85546875 0.0546875 C4.83128906 0.07789063 5.80710938 0.10109375 6.8125 0.125 C6.8125 0.455 6.8125 0.785 6.8125 1.125 C5.43964844 1.16367187 5.43964844 1.16367187 4.0390625 1.203125 C2.25628906 1.28820313 2.25628906 1.28820313 0.4375 1.375 C-1.33753906 1.44460937 -1.33753906 1.44460937 -3.1484375 1.515625 C-4.15132812 1.71671875 -5.15421875 1.9178125 -6.1875 2.125 C-7.40521543 4.01876353 -7.40521543 4.01876353 -8.1875 6.125 C-8.75291504 6.39006348 -9.31833008 6.65512695 -9.90087891 6.92822266 C-12.99261286 8.54638194 -15.19400972 10.8845179 -17.609375 13.3515625 C-18.36664886 14.11308121 -18.36664886 14.11308121 -19.13922119 14.88998413 C-20.74342096 16.50533842 -22.34050856 18.12752209 -23.9375 19.75 C-25.02688107 20.84941698 -26.1167199 21.94838059 -27.20703125 23.046875 C-29.87251885 25.7343602 -32.53165143 28.42799021 -35.1875 31.125 C-35.8475 30.795 -36.5075 30.465 -37.1875 30.125 C-35.90687515 28.4175002 -34.56982443 26.75126404 -33.1875 25.125 C-32.5275 25.125 -31.8675 25.125 -31.1875 25.125 C-30.8575 24.135 -30.5275 23.145 -30.1875 22.125 C-29.5275 22.125 -28.8675 22.125 -28.1875 22.125 C-27.919375 21.485625 -27.65125 20.84625 -27.375 20.1875 C-26.1875 18.125 -26.1875 18.125 -23.1875 17.125 C-22.8575 16.135 -22.5275 15.145 -22.1875 14.125 C-21.5275 14.125 -20.8675 14.125 -20.1875 14.125 C-19.919375 13.485625 -19.65125 12.84625 -19.375 12.1875 C-18.1875 10.125 -18.1875 10.125 -15.1875 9.125 C-14.8575 8.135 -14.5275 7.145 -14.1875 6.125 C-13.5275 6.125 -12.8675 6.125 -12.1875 6.125 C-11.919375 5.50625 -11.65125 4.8875 -11.375 4.25 C-8.65554267 -0.61639733 -5.03032895 -0.09229961 0 0 Z " fill="#333333" transform="translate(191.1875,57.875)"/>
<path d="M0 0 C1.32 0.33 2.64 0.66 4 1 C4 1.99 4 2.98 4 4 C4.66 4 5.32 4 6 4 C6 2.68 6 1.36 6 0 C6.99 0 7.98 0 9 0 C8.69078116 1.45903258 8.37751201 2.91720722 8.0625 4.375 C7.88847656 5.18710938 7.71445312 5.99921875 7.53515625 6.8359375 C7 9 7 9 6 11 C5.01 10.67 4.02 10.34 3 10 C2.67 9.01 2.34 8.02 2 7 C1.34 8.32 0.68 9.64 0 11 C-0.99 11 -1.98 11 -3 11 C-4.31626692 7.38026598 -5 4.90432869 -5 1 C-4.34 1 -3.68 1 -3 1 C-2.67 1.99 -2.34 2.98 -2 4 C-1.34 2.68 -0.68 1.36 0 0 Z " fill="#3A3A3A" transform="translate(273,217)"/>
<path d="M0 0 C4.29 0 8.58 0 13 0 C13 1.98 13 3.96 13 6 C10.625 6.625 10.625 6.625 8 7 C7.34 6.34 6.68 5.68 6 5 C5.67 5.66 5.34 6.32 5 7 C3.35 7 1.7 7 0 7 C0 4.69 0 2.38 0 0 Z " fill="#B9B9B9" transform="translate(212,238)"/>
<path d="M0 0 C6.27 0 12.54 0 19 0 C19 0.99 19 1.98 19 3 C18.01 3 17.02 3 16 3 C16 3.66 16 4.32 16 5 C15.34 5 14.68 5 14 5 C14 5.66 14 6.32 14 7 C12.03852126 8.38938077 10.03833424 9.7260411 8 11 C8 7.7 8 4.4 8 1 C5.36 1 2.72 1 0 1 C0 0.67 0 0.34 0 0 Z " fill="#E4A8B9" transform="translate(160,201)"/>
<path d="M0 0 C0.33 0.99 0.66 1.98 1 3 C0.01 3.66 -0.98 4.32 -2 5 C0.64 5.33 3.28 5.66 6 6 C6 9.3 6 12.6 6 16 C2.54872484 14.27436242 1.10856882 13.37648765 -1.3125 10.625 C-1.84488281 10.03976563 -2.37726563 9.45453125 -2.92578125 8.8515625 C-4 7 -4 7 -3.66796875 4.7734375 C-3.44753906 4.18820313 -3.22710937 3.60296875 -3 3 C-2.34 3 -1.68 3 -1 3 C-0.67 2.01 -0.34 1.02 0 0 Z " fill="#C895A2" transform="translate(169,240)"/>
<path d="M0 0 C0.99 0 1.98 0 3 0 C3 9.57 3 19.14 3 29 C6.63 29 10.26 29 14 29 C14 22.4 14 15.8 14 9 C14.33 9 14.66 9 15 9 C15 15.93 15 22.86 15 30 C10.71 30 6.42 30 2 30 C1.67 21.09 1.34 12.18 1 3 C0.01 3 -0.98 3 -2 3 C-1.34 2.01 -0.68 1.02 0 0 Z " fill="#989898" transform="translate(161,248)"/>
<path d="M0 0 C1.8125 0.125 1.8125 0.125 4 1 C6.28905989 4.67884625 7 6.61551956 7 11 C4.36 10.34 1.72 9.68 -1 9 C-1 9.66 -1 10.32 -1 11 C-1.99 11 -2.98 11 -4 11 C-3.52269162 9.5410574 -3.04308958 8.08286504 -2.5625 6.625 C-2.29566406 5.81289062 -2.02882813 5.00078125 -1.75390625 4.1640625 C-1 2 -1 2 0 0 Z " fill="#3F3F3F" transform="translate(285,217)"/>
<path d="M0 0 C0.53625 0.185625 1.0725 0.37125 1.625 0.5625 C4.60728392 1.11186809 7.03533794 0.52705103 10 0 C11 1 11 1 11.0625 3.5625 C11.041875 4.366875 11.02125 5.17125 11 6 C3.57142857 8.42857143 3.57142857 8.42857143 0 7 C0 4.69 0 2.38 0 0 Z " fill="#7E7E7E" transform="translate(213,251)"/>
<path d="M0 0 C10.56 0 21.12 0 32 0 C32 0.99 32 1.98 32 3 C31.01 3.33 30.02 3.66 29 4 C29 3.34 29 2.68 29 2 C19.43 2 9.86 2 0 2 C0 1.34 0 0.68 0 0 Z " fill="#A5A5A5" transform="translate(191,154)"/>
<path d="M0 0 C2.64 0 5.28 0 8 0 C7.48118887 4.1724106 6.28848726 6.25416821 3.4375 9.3125 C2.79683594 10.00988281 2.15617188 10.70726562 1.49609375 11.42578125 C1.00238281 11.94527344 0.50867188 12.46476562 0 13 C-0.96661363 9.87819599 -0.98988909 7.47916205 -0.5625 4.25 C-0.46066406 3.45078125 -0.35882813 2.6515625 -0.25390625 1.828125 C-0.17011719 1.22484375 -0.08632812 0.6215625 0 0 Z " fill="#F494AE" transform="translate(162,6)"/>
<path d="M0 0 C1.32 0.33 2.64 0.66 4 1 C4 4.3 4 7.6 4 11 C4.99 11 5.98 11 7 11 C7 9.35 7 7.7 7 6 C7.70125 6.639375 8.4025 7.27875 9.125 7.9375 C12.22841233 10.16386102 14.24620139 10.65080943 18 11 C18 11.33 18 11.66 18 12 C16.35 12 14.7 12 13 12 C12.67 12.99 12.34 13.98 12 15 C11.34 14.67 10.68 14.34 10 14 C10 13.34 10 12.68 10 12 C8.02 12.66 6.04 13.32 4 14 C3.34 13.01 2.68 12.02 2 11 C1.34 10.67 0.68 10.34 0 10 C0.99 9.67 1.98 9.34 3 9 C1.78955868 4.39257135 1.78955868 4.39257135 0 0 Z " fill="#CFCFCF" transform="translate(241,217)"/>
<path d="M0 0 C1.23556641 0.01740234 1.23556641 0.01740234 2.49609375 0.03515625 C3.32238281 0.04417969 4.14867187 0.05320312 5 0.0625 C5.63808594 0.07410156 6.27617187 0.08570313 6.93359375 0.09765625 C6.93359375 0.75765625 6.93359375 1.41765625 6.93359375 2.09765625 C3.85742188 2.390625 3.85742188 2.390625 0.78125 2.68359375 C0.17152344 2.82023437 -0.43820313 2.956875 -1.06640625 3.09765625 C-2.21455622 5.39395619 -2.37410434 7.17463711 -2.62890625 9.72265625 C-2.71269531 10.53992188 -2.79648438 11.3571875 -2.8828125 12.19921875 C-2.94339844 12.82570313 -3.00398437 13.4521875 -3.06640625 14.09765625 C-4.05640625 13.76765625 -5.04640625 13.43765625 -6.06640625 13.09765625 C-7.79435977 13.02962658 -9.5247599 13.0126998 -11.25390625 13.03515625 C-12.15496094 13.04417969 -13.05601562 13.05320312 -13.984375 13.0625 C-15.01498047 13.07990234 -15.01498047 13.07990234 -16.06640625 13.09765625 C-16.06640625 12.43765625 -16.06640625 11.77765625 -16.06640625 11.09765625 C-12.76640625 10.76765625 -9.46640625 10.43765625 -6.06640625 10.09765625 C-5.59203125 8.63328125 -5.11765625 7.16890625 -4.62890625 5.66015625 C-2.83879431 0.13415852 -2.83879431 0.13415852 0 0 Z " fill="#F9DCE4" transform="translate(211.06640625,322.90234375)"/>
<path d="M0 0 C0.33 0 0.66 0 1 0 C1 5.28 1 10.56 1 16 C-3.95 16 -8.9 16 -14 16 C-14 15.67 -14 15.34 -14 15 C-9.71 15 -5.42 15 -1 15 C-1.33 12.36 -1.66 9.72 -2 7 C-2.99 7 -3.98 7 -5 7 C-5 7.66 -5 8.32 -5 9 C-5.66 8.67 -6.32 8.34 -7 8 C-5.38405168 5.95880212 -3.7143618 3.95927063 -2 2 C-1.34 2 -0.68 2 0 2 C0 1.34 0 0.68 0 0 Z " fill="#DEA3B1" transform="translate(198,179)"/>
<path d="M0 0 C0.66 0 1.32 0 2 0 C2 3.3 2 6.6 2 10 C-0.64 10 -3.28 10 -6 10 C-6.33 8.68 -6.66 7.36 -7 6 C-6.21625 5.566875 -5.4325 5.13375 -4.625 4.6875 C-1.78301625 3.10779753 -1.78301625 3.10779753 0 0 Z " fill="#F493AD" transform="translate(158,126)"/>
<path d="M0 0 C-0.33 0.99 -0.66 1.98 -1 3 C-1 2.34 -1 1.68 -1 1 C-3.5402839 1.95314787 -3.5402839 1.95314787 -6 4 C-7.04768041 6.66921593 -7.48684546 9.15432483 -8 12 C-8.99 12 -9.98 12 -11 12 C-11 8.37 -11 4.74 -11 1 C-7.1273408 0.0318352 -3.96388638 -0.07622858 0 0 Z " fill="#767676" transform="translate(208,216)"/>
<path d="M0 0 C2.31 0 4.62 0 7 0 C7 1.65 7 3.3 7 5 C5.02 5.99 5.02 5.99 3 7 C3 7.66 3 8.32 3 9 C2.01 9 1.02 9 0 9 C0 6.03 0 3.06 0 0 Z " fill="#F395B0" transform="translate(211,284)"/>
<path d="M0 0 C7.92 0.33 15.84 0.66 24 1 C23.34 2.32 22.68 3.64 22 5 C21.67 4.34 21.34 3.68 21 3 C14.07 3 7.14 3 0 3 C0 2.01 0 1.02 0 0 Z " fill="#4A4A4A" transform="translate(198,18)"/>
<path d="M0 0 C3.12290635 0.48578543 5.99580359 0.9986012 9 2 C8.6875 4.375 8.6875 4.375 8 7 C7.01 7.66 6.02 8.32 5 9 C4.26656572 12.06556598 4.26656572 12.06556598 4 15 C4.99 15 5.98 15 7 15 C7 15.66 7 16.32 7 17 C8.32 17.33 9.64 17.66 11 18 C9.35 18 7.7 18 6 18 C6 17.34 6 16.68 6 16 C4.68 15.67 3.36 15.34 2 15 C1.875 9.25 1.875 9.25 3 7 C3.66 7 4.32 7 5 7 C5 6.34 5 5.68 5 5 C5.66 5 6.32 5 7 5 C7 4.34 7 3.68 7 3 C4.69 2.34 2.38 1.68 0 1 C0 0.67 0 0.34 0 0 Z " fill="#ECB2C2" transform="translate(197,345)"/>
<path d="M0 0 C2.33294775 -0.04241723 4.66702567 -0.04092937 7 0 C8 1 8 1 8.0625 4.0625 C8.041875 5.031875 8.02125 6.00125 8 7 C5.36 7 2.72 7 0 7 C0 4.69 0 2.38 0 0 Z " fill="#575757" transform="translate(204,251)"/>
<path d="M0 0 C0.33 0.66 0.66 1.32 1 2 C-0.43948713 5.97975853 -1.35023479 7.64912679 -5.125 9.6875 C-6.07375 10.120625 -7.0225 10.55375 -8 11 C-8.33 11.99 -8.66 12.98 -9 14 C-6.36 14.33 -3.72 14.66 -1 15 C-0.67 14.34 -0.34 13.68 0 13 C0 13.99 0 14.98 0 16 C-4.29 16 -8.58 16 -13 16 C-10.25727687 10.62004309 -7.72154999 7.71696488 -3 4 C-1.1873495 1.83779383 -1.1873495 1.83779383 0 0 Z " fill="#EAA5B8" transform="translate(154,336)"/>
<path d="M0 0 C0.99 0.33 1.98 0.66 3 1 C2.67 3.31 2.34 5.62 2 8 C3.32 7.67 4.64 7.34 6 7 C6 5.02 6 3.04 6 1 C7.32 1.33 8.64 1.66 10 2 C9.6875 4.875 9.6875 4.875 9 8 C5.5647952 10.29013653 4.014669 10.17842973 0 10 C0 6.7 0 3.4 0 0 Z " fill="#151515" transform="translate(221,218)"/>
<path d="M0 0 C0 0.33 0 0.66 0 1 C-1.66675781 0.9690625 -1.66675781 0.9690625 -3.3671875 0.9375 C-12.62272656 0.98847464 -18.38409929 1.63319883 -25.41015625 8.28515625 C-25.93480469 8.85105469 -26.45945313 9.41695312 -27 10 C-27.66 9.67 -28.32 9.34 -29 9 C-22.79825232 -3.06826576 -11.77520738 -0.93390677 0 0 Z " fill="#BEBEBE" transform="translate(167,213)"/>
<path d="M0 0 C0.33 0.66 0.66 1.32 1 2 C-0.07507629 3.29854721 -1.16043736 4.58858361 -2.25 5.875 C-2.85328125 6.59429687 -3.4565625 7.31359375 -4.078125 8.0546875 C-6 10 -6 10 -10 12 C-9.67 16.95 -9.34 21.9 -9 27 C-9.66 27 -10.32 27 -11 27 C-11 21.72 -11 16.44 -11 11 C-10.34 11 -9.68 11 -9 11 C-8.61714844 10.12601563 -8.61714844 10.12601563 -8.2265625 9.234375 C-6.88258913 6.78611777 -5.38189704 5.18256752 -3.375 3.25 C-2.74335938 2.63640625 -2.11171875 2.0228125 -1.4609375 1.390625 C-0.73777344 0.70226562 -0.73777344 0.70226562 0 0 Z " fill="#47383D" transform="translate(172,109)"/>
<path d="M0 0 C0.66 0 1.32 0 2 0 C0.69386058 3.91841827 -0.83129848 6.32640809 -4 9 C-4.66 9 -5.32 9 -6 9 C-6.33 9.99 -6.66 10.98 -7 12 C-9.5625 13.1875 -9.5625 13.1875 -12 14 C-12 13.34 -12 12.68 -12 12 C-11.34 12 -10.68 12 -10 12 C-9.814375 11.278125 -9.62875 10.55625 -9.4375 9.8125 C-7.69078985 6.39502361 -5.73433656 5.14021066 -2.55859375 3.11328125 C-0.83950206 2.06891055 -0.83950206 2.06891055 0 0 Z " fill="#F9DBE3" transform="translate(222,284)"/>
<path d="M0 0 C0.33 0.66 0.66 1.32 1 2 C-0.40145454 4.01234498 -1.81927141 6.00864109 -3.25 8 C-3.64574219 8.57234375 -4.04148438 9.1446875 -4.44921875 9.734375 C-5.640625 11.375 -5.640625 11.375 -8 14 C-9.32 14 -10.64 14 -12 14 C-10.60249952 10.84164893 -8.94801766 8.67727175 -6.5 6.25 C-5.8915625 5.63640625 -5.283125 5.0228125 -4.65625 4.390625 C-3 3 -3 3 -1 3 C-0.67 2.01 -0.34 1.02 0 0 Z " fill="#F9D9E2" transform="translate(174,5)"/>
<path d="M0 0 C0 4.95 0 9.9 0 15 C-0.33 15 -0.66 15 -1 15 C-1 11.37 -1 7.74 -1 4 C-1.94875 4.78375 -2.8975 5.5675 -3.875 6.375 C-4.40867188 6.81585937 -4.94234375 7.25671875 -5.4921875 7.7109375 C-6.71051161 8.75250992 -7.86660097 9.86660097 -9 11 C-9.66 10.34 -10.32 9.68 -11 9 C-10.01 8.67 -9.02 8.34 -8 8 C-7.31513275 6.67592331 -6.65129797 5.34090759 -6 4 C-2.44444444 0 -2.44444444 0 0 0 Z " fill="#3D3335" transform="translate(160,5)"/>
<path d="M0 0 C1.32 0 2.64 0 4 0 C4.33 1.65 4.66 3.3 5 5 C5.66 5 6.32 5 7 5 C6.34 6.65 5.68 8.3 5 10 C3.0625 9.25 3.0625 9.25 1 8 C0.125 6 0.125 6 0 4 C0.66 3.34 1.32 2.68 2 2 C1.34 1.34 0.68 0.68 0 0 Z " fill="#BBBBBB" transform="translate(252,217)"/>
<path d="M0 0 C0.33 1.98 0.66 3.96 1 6 C0.34 5.34 -0.32 4.68 -1 4 C-1 3.01 -1 2.02 -1 1 C-1.66 1 -2.32 1 -3 1 C-2.34 4.3 -1.68 7.6 -1 11 C-1.66 11 -2.32 11 -3 11 C-5.3208055 7.7508723 -6.43697042 4.94120709 -7 1 C-4.53721199 -0.231394 -2.7204945 -0.07159196 0 0 Z " fill="#ADADAD" transform="translate(271,217)"/>
<path d="M0 0 C0.99 0.33 1.98 0.66 3 1 C-2.28 6.28 -7.56 11.56 -13 17 C-13.33 16.01 -13.66 15.02 -14 14 C-12.37660195 12.29115995 -10.70680947 10.62553283 -9 9 C-8.34 9 -7.68 9 -7 9 C-7 8.34 -7 7.68 -7 7 C-5.34614767 5.65080468 -3.678298 4.31866272 -2 3 C-1.34 2.01 -0.68 1.02 0 0 Z " fill="#282828" transform="translate(196,4)"/>
<path d="M0 0 C0.66 0 1.32 0 2 0 C2 1.32 2 2.64 2 4 C1.34 4 0.68 4 0 4 C-0.3403125 4.8971875 -0.3403125 4.8971875 -0.6875 5.8125 C-2.3611297 8.60188284 -4.08817726 9.6168842 -7 11 C-7.66 10.67 -8.32 10.34 -9 10 C-7.38405168 7.95880212 -5.7143618 5.95927063 -4 4 C-3.34 4 -2.68 4 -2 4 C-2 3.34 -2 2.68 -2 2 C-1.34 2 -0.68 2 0 2 C0 1.34 0 0.68 0 0 Z " fill="#EDA5B8" transform="translate(132,68)"/>
<path d="M0 0 C3 1 3 1 4 3 C4.039992 4.99960012 4.04346799 7.00047242 4 9 C6.97 9 9.94 9 13 9 C13.33 9.66 13.66 10.32 14 11 C11.0703125 10.95117188 11.0703125 10.95117188 8.140625 10.90234375 C5.96707597 11.00150201 4.08693463 11.40306149 2 12 C1.93941406 11.38511719 1.87882813 10.77023437 1.81640625 10.13671875 C1.73261719 9.32847656 1.64882812 8.52023437 1.5625 7.6875 C1.48128906 6.88699219 1.40007812 6.08648437 1.31640625 5.26171875 C1.04734307 2.83912821 1.04734307 2.83912821 0 0 Z " fill="#FADDE4" transform="translate(218,325)"/>
<path d="M0 0 C2 1 2 1 2.9375 3.6875 C3 7 3 7 0.875 10.25 C-1.80635541 12.81477474 -3.43248562 14.13222623 -7 15 C-7.66 14.67 -8.32 14.34 -9 14 C-9 13.34 -9 12.68 -9 12 C-7.329375 11.5978125 -7.329375 11.5978125 -5.625 11.1875 C-1.78159049 10.34190981 -1.78159049 10.34190981 0 7 C0.07905064 4.66800612 0.08798769 2.33167378 0 0 Z " fill="#FAE4E9" transform="translate(233,336)"/>
<path d="M0 0 C2.45409801 3.68114701 2.16723151 5.27039848 1.9765625 9.63671875 C1.89921875 11.58481445 1.89921875 11.58481445 1.8203125 13.57226562 C1.75543549 14.94402118 1.69032837 16.31576587 1.625 17.6875 C1.56674379 19.07092326 1.50944085 20.45438702 1.453125 21.83789062 C1.31147124 25.22577631 1.16003846 28.61294104 1 32 C0.67 32 0.34 32 0 32 C0 22.43 0 12.86 0 3 C-0.66 2.67 -1.32 2.34 -2 2 C-1.34 1.34 -0.68 0.68 0 0 Z " fill="#524F50" transform="translate(164,245)"/>
<path d="M0 0 C2.97 0.495 2.97 0.495 6 1 C6 2.98 6 4.96 6 7 C4.02 7 2.04 7 0 7 C0 4.69 0 2.38 0 0 Z " fill="#515151" transform="translate(226,251)"/>
<path d="M0 0 C0.99 0 1.98 0 3 0 C3 1.32 3 2.64 3 4 C3.66 4.33 4.32 4.66 5 5 C4.34 6.98 3.68 8.96 3 11 C2.01 11 1.02 11 0 11 C0 7.37 0 3.74 0 0 Z " fill="#3C3C3C" transform="translate(245,217)"/>
<path d="M0 0 C0.66 0 1.32 0 2 0 C2.95719944 4.0680976 3.43670609 6.17899254 1.4375 9.9375 C-1 12 -1 12 -4.25 12.3125 C-5.1575 12.209375 -6.065 12.10625 -7 12 C-7 12.66 -7 13.32 -7 14 C-7.66 14 -8.32 14 -9 14 C-8.67 13.01 -8.34 12.02 -8 11 C-7.05125 10.938125 -6.1025 10.87625 -5.125 10.8125 C-1.85527984 10.34860535 -1.85527984 10.34860535 -0.625 7.75 C-0.01238989 5.05451551 0.15730269 2.75279705 0 0 Z " fill="#F0B4C4" transform="translate(231,336)"/>
<path d="M0 0 C1.65 0 3.3 0 5 0 C5 2.31 5 4.62 5 7 C3.35 7 1.7 7 0 7 C0 4.69 0 2.38 0 0 Z " fill="#505050" transform="translate(197,251)"/>
<path d="M0 0 C0.99 0 1.98 0 3 0 C3.33 2.31 3.66 4.62 4 7 C2.02 7.33 0.04 7.66 -2 8 C-1.125 2.25 -1.125 2.25 0 0 Z " fill="#505050" transform="translate(205,238)"/>
<path d="M0 0 C6.75 -0.125 6.75 -0.125 9 1 C9 2.32 9 3.64 9 5 C6.36 4.34 3.72 3.68 1 3 C1 3.66 1 4.32 1 5 C0.01 5 -0.98 5 -2 5 C-1.34 3.35 -0.68 1.7 0 0 Z " fill="#1B1B1B" transform="translate(283,223)"/>
<path d="M0 0 C0.99 0 1.98 0 3 0 C2.69078116 1.45903258 2.37751201 2.91720722 2.0625 4.375 C1.88847656 5.18710938 1.71445312 5.99921875 1.53515625 6.8359375 C1 9 1 9 0 11 C-0.99 10.67 -1.98 10.34 -3 10 C-3 8.68 -3 7.36 -3 6 C-2.34 5.67 -1.68 5.34 -1 5 C-0.34444881 2.47266765 -0.34444881 2.47266765 0 0 Z " fill="#1C1C1C" transform="translate(279,217)"/>
<path d="M0 0 C1.65 0 3.3 0 5 0 C5.33 1.65 5.66 3.3 6 5 C4.34385343 5.38218767 2.67542976 5.71395102 1 6 C0 5 0 5 -0.0625 2.4375 C-0.041875 1.633125 -0.02125 0.82875 0 0 Z " fill="#DADADA" transform="translate(235,220)"/>
<path d="M0 0 C1.32 0.33 2.64 0.66 4 1 C4 4.3 4 7.6 4 11 C3.34 11 2.68 11 2 11 C1.67 11.66 1.34 12.32 1 13 C-0.65 13 -2.3 13 -4 13 C-2.68 12.67 -1.36 12.34 0 12 C0 11.01 0 10.02 0 9 C0.66 9 1.32 9 2 9 C1.51515724 4.35413108 1.51515724 4.35413108 0 0 Z " fill="#EBADBE" transform="translate(224,350)"/>
<path d="M0 0 C2.475 0.495 2.475 0.495 5 1 C5 2.98 5 4.96 5 7 C3.35 7 1.7 7 0 7 C0 4.69 0 2.38 0 0 Z " fill="#424242" transform="translate(227,238)"/>
<path d="M0 0 C1.65 0 3.3 0 5 0 C5.20086443 3.71599191 5.1519437 4.77208445 3 8 C0.9375 5.6875 0.9375 5.6875 -1 3 C-0.67 2.01 -0.34 1.02 0 0 Z " fill="#DB8CA0" transform="translate(232,124)"/>
<path d="M0 0 C2.97 0 5.94 0 9 0 C6.75 4.5 6.75 4.5 3 6 C2.34 5.34 1.68 4.68 1 4 C1.33 3.34 1.66 2.68 2 2 C1.34 2 0.68 2 0 2 C0 1.34 0 0.68 0 0 Z " fill="#E7E7E7" transform="translate(193,79)"/>
<path d="M0 0 C0.99 0 1.98 0 3 0 C3.33 1.98 3.66 3.96 4 6 C2.68 6.33 1.36 6.66 0 7 C0 6.34 0 5.68 0 5 C-0.66 5 -1.32 5 -2 5 C-1.34 3.35 -0.68 1.7 0 0 Z " fill="#414141" transform="translate(261,217)"/>
<path d="M0 0 C0.66 0.99 1.32 1.98 2 3 C0.63016497 6.16115776 0.0109362 6.9927092 -3 9 C-3.99 9 -4.98 9 -6 9 C-4.47291037 5.56404834 -2.40072955 2.88087546 0 0 Z " fill="#C9C9C9" transform="translate(198,58)"/>
<path d="M0 0 C2.24658203 -0.34057617 2.24658203 -0.34057617 5.0078125 -0.29296875 C5.99394531 -0.28330078 6.98007813 -0.27363281 7.99609375 -0.26367188 C9.02863281 -0.23853516 10.06117188 -0.21339844 11.125 -0.1875 C12.68541016 -0.16719727 12.68541016 -0.16719727 14.27734375 -0.14648438 C16.85207627 -0.11105228 19.4257833 -0.06165221 22 0 C20 2 20 2 16.515625 2.16015625 C15.09355757 2.13752035 13.67162619 2.10453733 12.25 2.0625 C7.34894333 1.94132003 2.8389736 2.01851007 -2 3 C-1.34 2.01 -0.68 1.02 0 0 Z " fill="#C3C3C3" transform="translate(148,31)"/>
<path d="M0 0 C0.66 1.32 1.32 2.64 2 4 C3.98 4 5.96 4 8 4 C8.33 3.01 8.66 2.02 9 1 C8.125 5.875 8.125 5.875 7 7 C4.0625 7.1875 4.0625 7.1875 1 7 C0.34 6.34 -0.32 5.68 -1 5 C-0.625 2.375 -0.625 2.375 0 0 Z " fill="#0B0B0B" transform="translate(234,221)"/>
<path d="M0 0 C0.66 0 1.32 0 2 0 C2.33 1.65 2.66 3.3 3 5 C3.66 5 4.32 5 5 5 C5 6.65 5 8.3 5 10 C4.01 10 3.02 10 2 10 C0.68373308 6.38026598 0 3.90432869 0 0 Z " fill="#1A1A1A" transform="translate(268,218)"/>
<path d="M0 0 C0.99 0 1.98 0 3 0 C3.33 1.98 3.66 3.96 4 6 C2.35 6.33 0.7 6.66 -1 7 C-1.04254356 5.00045254 -1.04080783 2.99958364 -1 1 C-0.67 0.67 -0.34 0.34 0 0 Z " fill="#484848" transform="translate(241,251)"/>
<path d="M0 0 C0.99 0 1.98 0 3 0 C3.33 1.98 3.66 3.96 4 6 C2.68 5.67 1.36 5.34 0 5 C0 5.66 0 6.32 0 7 C-0.66 7 -1.32 7 -2 7 C-1.125 1.125 -1.125 1.125 0 0 Z " fill="#363636" transform="translate(236,239)"/>
<path d="M0 0 C0.66 0 1.32 0 2 0 C2 0.66 2 1.32 2 2 C3.65 1.67 5.3 1.34 7 1 C7.66 2.65 8.32 4.3 9 6 C8.01 6 7.02 6 6 6 C6 5.34 6 4.68 6 4 C4.02 4 2.04 4 0 4 C0 2.68 0 1.36 0 0 Z " fill="#131313" transform="translate(259,222)"/>
<path d="M0 0 C3.3 1.65 6.6 3.3 10 5 C10 5.66 10 6.32 10 7 C9.34 7 8.68 7 8 7 C7.67 7.66 7.34 8.32 7 9 C6.67 8.01 6.34 7.02 6 6 C2.99152582 4.77479736 2.99152582 4.77479736 0 4 C0 2.68 0 1.36 0 0 Z " fill="#FAD9E1" transform="translate(194,343)"/>
<path d="M0 0 C2.475 0.495 2.475 0.495 5 1 C5 2.98 5 4.96 5 7 C3.35 7 1.7 7 0 7 C0 4.69 0 2.38 0 0 Z " fill="#424242" transform="translate(212,238)"/>
<path d="M0 0 C1.67542976 0.28604898 3.34385343 0.61781233 5 1 C5 2.65 5 4.3 5 6 C4.34 6 3.68 6 3 6 C3 4.68 3 3.36 3 2 C2.34 2 1.68 2 1 2 C1 3.32 1 4.64 1 6 C0.34 6 -0.32 6 -1 6 C-1.042721 4.33388095 -1.04063832 2.66617115 -1 1 C-0.67 0.67 -0.34 0.34 0 0 Z " fill="#3C3C3C" transform="translate(219,251)"/>
<path d="M0 0 C1.65 0 3.3 0 5 0 C4.67 2.31 4.34 4.62 4 7 C3.01 7 2.02 7 1 7 C0.67 4.69 0.34 2.38 0 0 Z " fill="#646464" transform="translate(234,251)"/>
<path d="M0 0 C0.66 0 1.32 0 2 0 C2 1.32 2 2.64 2 4 C2.66 4 3.32 4 4 4 C4 2.68 4 1.36 4 0 C4.66 0 5.32 0 6 0 C6 1.65 6 3.3 6 5 C4.34385343 5.38218767 2.67542976 5.71395102 1 6 C0 5 0 5 -0.0625 2.4375 C-0.041875 1.633125 -0.02125 0.82875 0 0 Z " fill="#424242" transform="translate(219,239)"/>
<path d="M0 0 C2 2 2 2 3 5 C3.66 5.66 4.32 6.32 5 7 C2.75 8.1875 2.75 8.1875 0 9 C-2.3125 7.625 -2.3125 7.625 -4 6 C-3.01 6 -2.02 6 -1 6 C-0.67 4.02 -0.34 2.04 0 0 Z " fill="#D0D0D0" transform="translate(274,222)"/>
<path d="M0 0 C3.12290635 0.48578543 5.99580359 0.9986012 9 2 C8.67 3.65 8.34 5.3 8 7 C7.01 7.33 6.02 7.66 5 8 C5 7.01 5 6.02 5 5 C5.66 5 6.32 5 7 5 C7 4.34 7 3.68 7 3 C4.69 2.34 2.38 1.68 0 1 C0 0.67 0 0.34 0 0 Z " fill="#EEA5B9" transform="translate(197,345)"/>
<path d="M0 0 C0.99 0 1.98 0 3 0 C3 2.31 3 4.62 3 7 C1.68 7 0.36 7 -1 7 C-1.04254356 5.00045254 -1.04080783 2.99958364 -1 1 C-0.67 0.67 -0.34 0.34 0 0 Z " fill="#404040" transform="translate(198,238)"/>
<path d="M0 0 C0.66 0 1.32 0 2 0 C2.33 1.65 2.66 3.3 3 5 C2.34 4.67 1.68 4.34 1 4 C0.67 5.32 0.34 6.64 0 8 C-1.65 8 -3.3 8 -5 8 C-4.21718695 6.66144944 -3.42348123 5.32926356 -2.625 4 C-2.18414062 3.2575 -1.74328125 2.515 -1.2890625 1.75 C-0.86367187 1.1725 -0.43828125 0.595 0 0 Z " fill="#F9CFD9" transform="translate(213,354)"/>
<path d="M0 0 C0.99 0.33 1.98 0.66 3 1 C2.67 3.31 2.34 5.62 2 8 C2.66 8.33 3.32 8.66 4 9 C2.68 9.33 1.36 9.66 0 10 C0 6.7 0 3.4 0 0 Z " fill="#0E0E0E" transform="translate(221,218)"/>
<path d="M0 0 C0.66 0.33 1.32 0.66 2 1 C0.47793991 3.62901288 -0.84365964 5.84365964 -3 8 C-3.99 7.67 -4.98 7.34 -6 7 C-5.34 6.01 -4.68 5.02 -4 4 C-3.34 4 -2.68 4 -2 4 C-1.34 2.68 -0.68 1.36 0 0 Z " fill="#EDA6B9" transform="translate(157,124)"/>
<path d="M0 0 C0.33 0.66 0.66 1.32 1 2 C-0.4375 4.625 -0.4375 4.625 -2 7 C-3.32 6.01 -4.64 5.02 -6 4 C-5.67 3.01 -5.34 2.02 -5 1 C-5 1.66 -5 2.32 -5 3 C-4.01 3 -3.02 3 -2 3 C-2 2.34 -2 1.68 -2 1 C-1.34 0.67 -0.68 0.34 0 0 Z " fill="#CBCBCB" transform="translate(210,220)"/>
<path d="M0 0 C1.875 0.125 1.875 0.125 4 1 C5.25 4.0625 5.25 4.0625 6 7 C4.35 7 2.7 7 1 7 C1.33 5.02 1.66 3.04 2 1 C1.34 0.67 0.68 0.34 0 0 Z " fill="#505050" transform="translate(212,217)"/>
<path d="M0 0 C0.33 0.66 0.66 1.32 1 2 C0.67 2.99 0.34 3.98 0 5 C1.32 5.33 2.64 5.66 4 6 C0.7 6 -2.6 6 -6 6 C-4 4 -2 2 0 0 Z " fill="#EDA6BA" transform="translate(190,188)"/>
<path d="M0 0 C2.375 -0.125 2.375 -0.125 5 0 C7 2 7 2 7.125 5.125 C7.08375 6.07375 7.0425 7.0225 7 8 C6.01 7.67 5.02 7.34 4 7 C3.67 5.02 3.34 3.04 3 1 C2.01 0.67 1.02 0.34 0 0 Z " fill="#2B2B2B" transform="translate(237,218)"/>
<path d="M0 0 C1.32 0.33 2.64 0.66 4 1 C0.535 3.97 0.535 3.97 -3 7 C-2.25 2.25 -2.25 2.25 0 0 Z " fill="#F9DDE2" transform="translate(148,130)"/>
<path d="M0 0 C4.95 0 9.9 0 15 0 C13.515 1.98 13.515 1.98 12 4 C11.34 4 10.68 4 10 4 C10 3.01 10 2.02 10 1 C6.7 1 3.4 1 0 1 C0 0.67 0 0.34 0 0 Z " fill="#E0A3B5" transform="translate(161,4)"/>
<path d="M0 0 C3.71599191 -0.20086443 4.77208445 -0.1519437 8 2 C8.33 1.34 8.66 0.68 9 0 C9 0.99 9 1.98 9 3 C6.36 3.33 3.72 3.66 1 4 C1.66 3.67 2.32 3.34 3 3 C3 2.34 3 1.68 3 1 C2.01 1.33 1.02 1.66 0 2 C0 1.34 0 0.68 0 0 Z " fill="#C1C1C1" transform="translate(284,226)"/>
<path d="M0 0 C0.66 0.99 1.32 1.98 2 3 C3.32 3.66 4.64 4.32 6 5 C2.7 5 -0.6 5 -4 5 C-2.68 3.35 -1.36 1.7 0 0 Z " fill="#E2A2B4" transform="translate(150,132)"/>
<path d="M0 0 C1.32 0 2.64 0 4 0 C4 1.65 4 3.3 4 5 C2.68 5 1.36 5 0 5 C0 3.35 0 1.7 0 0 Z " fill="#D4D4D4" transform="translate(224,220)"/>
<path d="M0 0 C0.99 0 1.98 0 3 0 C3.28875 0.78375 3.5775 1.5675 3.875 2.375 C4.84912254 5.09671632 4.84912254 5.09671632 7 7 C7 7.66 7 8.32 7 9 C5.0625 8.375 5.0625 8.375 3 7 C2.375 3.9375 2.375 3.9375 2 1 C1.34 0.67 0.68 0.34 0 0 Z " fill="#EEA5B9" transform="translate(213,353)"/>
<path d="M0 0 C0.66 0.33 1.32 0.66 2 1 C1.38461538 6.53846154 1.38461538 6.53846154 -0.5625 8.875 C-1.036875 9.24625 -1.51125 9.6175 -2 10 C-2.33 9.01 -2.66 8.02 -3 7 C-2.34 7 -1.68 7 -1 7 C-0.67 4.69 -0.34 2.38 0 0 Z " fill="#E3E3E3" transform="translate(239,251)"/>
<path d="M0 0 C0 0.99 0 1.98 0 3 C-0.99 3.495 -0.99 3.495 -2 4 C-2 5.32 -2 6.64 -2 8 C-3.65 8 -5.3 8 -7 8 C-3.375 2.25 -3.375 2.25 0 0 Z " fill="#C0C0C0" transform="translate(129,231)"/>
<path d="M0 0 C0.99 0.33 1.98 0.66 3 1 C1.02 2.98 -0.96 4.96 -3 7 C-3.66 6.67 -4.32 6.34 -5 6 C-3.35 4.02 -1.7 2.04 0 0 Z " fill="#323232" transform="translate(162,181)"/>
<path d="M0 0 C1.32 0 2.64 0 4 0 C2.63016497 3.16115776 2.0109362 3.9927092 -1 6 C-1.042721 4.33388095 -1.04063832 2.66617115 -1 1 C-0.67 0.67 -0.34 0.34 0 0 Z " fill="#DBDBDB" transform="translate(164,32)"/>
<path d="M0 0 C-1.20381448 2.49361571 -2.45428722 4.68143083 -4 7 C-4 6.01 -4 5.02 -4 4 C-4.66 3.67 -5.32 3.34 -6 3 C-3.375 0 -3.375 0 0 0 Z " fill="#3E3E3E" transform="translate(207,217)"/>
<path d="M0 0 C0.99 0 1.98 0 3 0 C3 2.64 3 5.28 3 8 C2.67 8 2.34 8 2 8 C1.67 6.35 1.34 4.7 1 3 C0.01 3 -0.98 3 -2 3 C-1.34 2.01 -0.68 1.02 0 0 Z " fill="#BBBBBA" transform="translate(161,248)"/>
<path d="M0 0 C1.65 0 3.3 0 5 0 C5 0.99 5 1.98 5 3 C3.68 3.33 2.36 3.66 1 4 C0.67 2.68 0.34 1.36 0 0 Z " fill="#F295B0" transform="translate(169,247)"/>
<path d="M0 0 C0.33 0.66 0.66 1.32 1 2 C-2.44615385 6.8 -2.44615385 6.8 -5.25 7.8125 C-6.11625 7.9053125 -6.11625 7.9053125 -7 8 C-6.67 7.34 -6.34 6.68 -6 6 C-5.34 6 -4.68 6 -4 6 C-3.67 5.01 -3.34 4.02 -3 3 C-2.34 3 -1.68 3 -1 3 C-0.67 2.01 -0.34 1.02 0 0 Z " fill="#B1B1B1" transform="translate(204,93)"/>
<path d="M0 0 C-1.36983503 3.16115776 -1.9890638 3.9927092 -5 6 C-5.33 5.01 -5.66 4.02 -6 3 C-2.25 0 -2.25 0 0 0 Z " fill="#FAE1E6" transform="translate(128,72)"/>
<path d="M0 0 C0.33 0.99 0.66 1.98 1 3 C-0.65 4.32 -2.3 5.64 -4 7 C-4 5.68 -4 4.36 -4 3 C-3.34 3 -2.68 3 -2 3 C-2 2.34 -2 1.68 -2 1 C-1.34 0.67 -0.68 0.34 0 0 Z " fill="#DCDCDC" transform="translate(141,57)"/>
<path d="M0 0 C0.99 0.33 1.98 0.66 3 1 C1.35 2.98 -0.3 4.96 -2 7 C-2.6875 5.1875 -2.6875 5.1875 -3 3 C-1.5625 1.25 -1.5625 1.25 0 0 Z " fill="#EA9DB3" transform="translate(164,12)"/>
</svg>
